G04 #@! TF.GenerationSoftware,KiCad,Pcbnew,(5.99.0-13086-gffd1139cfe)*
G04 #@! TF.CreationDate,2021-12-30T00:07:05+03:00*
G04 #@! TF.ProjectId,proteus-mitsubishi76-adapter,70726f74-6575-4732-9d6d-697473756269,rev?*
G04 #@! TF.SameCoordinates,PX88c1c40PYce16ca0*
G04 #@! TF.FileFunction,Soldermask,Bot*
G04 #@! TF.FilePolarity,Negative*
%FSLAX46Y46*%
G04 Gerber Fmt 4.6, Leading zero omitted, Abs format (unit mm)*
G04 Created by KiCad (PCBNEW (5.99.0-13086-gffd1139cfe)) date 2021-12-30 00:07:05*
%MOMM*%
%LPD*%
G01*
G04 APERTURE LIST*
%ADD10C,2.000000*%
%ADD11C,2.400000*%
%ADD12C,1.700000*%
%ADD13C,1.524000*%
%ADD14C,0.599999*%
%ADD15C,5.400000*%
%ADD16R,1.700000X1.700000*%
%ADD17O,1.700000X1.700000*%
%ADD18O,1.700000X1.950000*%
%ADD19C,3.500000*%
%ADD20C,4.000000*%
G04 APERTURE END LIST*
D10*
G04 #@! TO.C,BRD1*
X33000000Y114675001D03*
X33000000Y48275001D03*
X14900000Y49775001D03*
X100900000Y63775001D03*
X136500000Y49775001D03*
X14900000Y113175001D03*
X136500000Y113175001D03*
X52000000Y45675001D03*
X99400000Y45675001D03*
X118400000Y114675001D03*
X50500000Y63775001D03*
X118400000Y48275001D03*
D11*
X129700000Y59475001D03*
X129700000Y63475001D03*
X129700000Y67475001D03*
X129700000Y71475001D03*
X129700000Y75475001D03*
X129700000Y79475001D03*
X129700000Y83475001D03*
X129700000Y87475001D03*
X129700000Y91475001D03*
X129700000Y95475001D03*
X129700000Y99475001D03*
X129700000Y103475001D03*
X125700000Y61475001D03*
X125700000Y65475001D03*
X125700000Y69475001D03*
X125700000Y73475001D03*
X125700000Y77475001D03*
X125700000Y81475001D03*
X125700000Y85475001D03*
X125700000Y89475001D03*
X125700000Y93475001D03*
X125700000Y97475001D03*
X125700000Y101475001D03*
X121700000Y59475001D03*
X121700000Y63475001D03*
X121700000Y67475001D03*
X121700000Y71475001D03*
X121700000Y75475001D03*
X121700000Y79475001D03*
X121700000Y83475001D03*
X121700000Y87475001D03*
X121700000Y91475001D03*
X121700000Y95475001D03*
X121700000Y99475001D03*
X121700000Y103475001D03*
X61700000Y52475001D03*
X65700000Y52475001D03*
X69700000Y52475001D03*
X73700000Y52475001D03*
X77700000Y52475001D03*
X81700000Y52475001D03*
X85700000Y52475001D03*
X89700000Y52475001D03*
X63700000Y56475001D03*
X67700000Y56475001D03*
X71700000Y56475001D03*
X75700000Y56475001D03*
X79700000Y56475001D03*
X83700000Y56475001D03*
X87700000Y56475001D03*
X61700000Y60475001D03*
X65700000Y60475001D03*
X69700000Y60475001D03*
X73700000Y60475001D03*
X77700000Y60475001D03*
X81700000Y60475001D03*
X85700000Y60475001D03*
X89700000Y60475001D03*
X21700000Y103475001D03*
X21700000Y99475001D03*
X21700000Y95475001D03*
X21700000Y91475001D03*
X21700000Y87475001D03*
X21700000Y83475001D03*
X21700000Y79475001D03*
X21700000Y75475001D03*
X21700000Y71475001D03*
X21700000Y67475001D03*
X21700000Y63475001D03*
X21700000Y59475001D03*
X25700000Y101475001D03*
X25700000Y97475001D03*
X25700000Y93475001D03*
X25700000Y89475001D03*
X25700000Y85475001D03*
X25700000Y81475001D03*
X25700000Y77475001D03*
X25700000Y73475001D03*
X25700000Y69475001D03*
X25700000Y65475001D03*
X25700000Y61475001D03*
X29700000Y103475001D03*
X29700000Y99475001D03*
X29700000Y95475001D03*
X29700000Y91475001D03*
X29700000Y87475001D03*
X29700000Y83475001D03*
X29700000Y79475001D03*
X29700000Y75475001D03*
X29700000Y71475001D03*
X29700000Y67475001D03*
X29700000Y63475001D03*
X29700000Y59475001D03*
G04 #@! TD*
D12*
G04 #@! TO.C,P26*
X50500000Y127500000D03*
G04 #@! TD*
G04 #@! TO.C,P27*
X44000000Y133000000D03*
G04 #@! TD*
G04 #@! TO.C,P10*
X81600000Y127500000D03*
G04 #@! TD*
G04 #@! TO.C,P44*
X107800000Y95500000D03*
G04 #@! TD*
D13*
G04 #@! TO.C,R28*
X26000000Y126905000D03*
X26000000Y123095000D03*
G04 #@! TD*
G04 #@! TO.C,R9*
X146800000Y126705000D03*
X146800000Y122895000D03*
G04 #@! TD*
D14*
G04 #@! TO.C,M2*
X47656662Y27262501D03*
X48181662Y28137503D03*
X48931660Y26962499D03*
X52481661Y27037502D03*
G04 #@! TD*
D13*
G04 #@! TO.C,R3*
X133800000Y126705000D03*
X133800000Y122895000D03*
G04 #@! TD*
D12*
G04 #@! TO.C,P19*
X53500000Y133000000D03*
G04 #@! TD*
G04 #@! TO.C,P57*
X87000000Y35600000D03*
G04 #@! TD*
G04 #@! TO.C,P53*
X90000000Y35600000D03*
G04 #@! TD*
D13*
G04 #@! TO.C,R17*
X110900000Y126905000D03*
X110900000Y123095000D03*
G04 #@! TD*
G04 #@! TO.C,R35*
X90400000Y127105000D03*
X90400000Y123295000D03*
G04 #@! TD*
D12*
G04 #@! TO.C,P61*
X43500000Y90000000D03*
G04 #@! TD*
D13*
G04 #@! TO.C,R15*
X118400000Y126905000D03*
X118400000Y123095000D03*
G04 #@! TD*
D12*
G04 #@! TO.C,P25*
X53500000Y127500000D03*
G04 #@! TD*
G04 #@! TO.C,P3*
X110500000Y132000000D03*
G04 #@! TD*
G04 #@! TO.C,P67*
X43500000Y59500000D03*
G04 #@! TD*
D13*
G04 #@! TO.C,R11*
X136400000Y126705000D03*
X136400000Y122895000D03*
G04 #@! TD*
D12*
G04 #@! TO.C,G8*
X20000000Y12000000D03*
X20000000Y14540000D03*
X20000000Y17080000D03*
X20000000Y19620000D03*
X20000000Y22160000D03*
X22540000Y12000000D03*
X22540000Y14540000D03*
X22540000Y17080000D03*
X22540000Y19620000D03*
X22540000Y22160000D03*
X25080000Y12000000D03*
X25080000Y14540000D03*
X25080000Y17080000D03*
X25080000Y19620000D03*
X25080000Y22160000D03*
G04 #@! TD*
G04 #@! TO.C,P35*
X107800000Y92200000D03*
G04 #@! TD*
G04 #@! TO.C,P24*
X56500000Y127500000D03*
G04 #@! TD*
G04 #@! TO.C,G2*
X12460000Y25000000D03*
X12460000Y27540000D03*
X12460000Y30080000D03*
X12460000Y32620000D03*
X12460000Y35160000D03*
X15000000Y25000000D03*
X15000000Y27540000D03*
X15000000Y30080000D03*
X15000000Y32620000D03*
X15000000Y35160000D03*
X17540000Y25000000D03*
X17540000Y27540000D03*
X17540000Y30080000D03*
X17540000Y32620000D03*
X17540000Y35160000D03*
G04 #@! TD*
G04 #@! TO.C,P51*
X69000000Y35600000D03*
G04 #@! TD*
D15*
G04 #@! TO.C,H2*
X5000000Y6000000D03*
G04 #@! TD*
D12*
G04 #@! TO.C,P18*
X56500000Y133000000D03*
G04 #@! TD*
D13*
G04 #@! TO.C,R5*
X123400000Y126905000D03*
X123400000Y123095000D03*
G04 #@! TD*
D12*
G04 #@! TO.C,P55*
X93000000Y35600000D03*
G04 #@! TD*
D13*
G04 #@! TO.C,R32*
X37500000Y126905000D03*
X37500000Y123095000D03*
G04 #@! TD*
G04 #@! TO.C,F1*
X98000000Y127850000D03*
X98000000Y122950000D03*
G04 #@! TD*
G04 #@! TO.C,R4*
X128600000Y126905000D03*
X128600000Y123095000D03*
G04 #@! TD*
D12*
G04 #@! TO.C,P65*
X43500000Y81000000D03*
G04 #@! TD*
D13*
G04 #@! TO.C,R25*
X45000000Y126954999D03*
X45000000Y123144999D03*
G04 #@! TD*
D12*
G04 #@! TO.C,P21*
X65500000Y127500000D03*
G04 #@! TD*
G04 #@! TO.C,P64*
X43500000Y87000000D03*
G04 #@! TD*
G04 #@! TO.C,P28*
X35500000Y133000000D03*
G04 #@! TD*
G04 #@! TO.C,G5*
X35000000Y12000000D03*
X35000000Y14540000D03*
X35000000Y17080000D03*
X35000000Y19620000D03*
X35000000Y22160000D03*
X37540000Y12000000D03*
X37540000Y14540000D03*
X37540000Y17080000D03*
X37540000Y19620000D03*
X37540000Y22160000D03*
X40080000Y12000000D03*
X40080000Y14540000D03*
X40080000Y17080000D03*
X40080000Y19620000D03*
X40080000Y22160000D03*
G04 #@! TD*
D16*
G04 #@! TO.C,J4*
X59000000Y6650000D03*
D17*
X56460000Y6650000D03*
X53920000Y6650000D03*
X51380000Y6650000D03*
X48840000Y6650000D03*
X46300000Y6650000D03*
G04 #@! TD*
D12*
G04 #@! TO.C,P45*
X107800000Y89000000D03*
G04 #@! TD*
G04 #@! TO.C,P5*
X84800000Y133000000D03*
G04 #@! TD*
G04 #@! TO.C,G7*
X20000000Y25000000D03*
X20000000Y27540000D03*
X20000000Y30080000D03*
X20000000Y32620000D03*
X20000000Y35160000D03*
X22540000Y25000000D03*
X22540000Y27540000D03*
X22540000Y30080000D03*
X22540000Y32620000D03*
X22540000Y35160000D03*
X25080000Y25000000D03*
X25080000Y27540000D03*
X25080000Y30080000D03*
X25080000Y32620000D03*
X25080000Y35160000D03*
G04 #@! TD*
D13*
G04 #@! TO.C,R20*
X78205000Y123000000D03*
X74395000Y123000000D03*
G04 #@! TD*
D12*
G04 #@! TO.C,P59*
X43500000Y96000000D03*
G04 #@! TD*
D13*
G04 #@! TO.C,R27*
X32400000Y126954999D03*
X32400000Y123144999D03*
G04 #@! TD*
G04 #@! TO.C,R7*
X108400000Y126905000D03*
X108400000Y123095000D03*
G04 #@! TD*
D15*
G04 #@! TO.C,H1*
X144000000Y137200000D03*
G04 #@! TD*
G04 #@! TO.C,H4*
X144000000Y6000000D03*
G04 #@! TD*
D12*
G04 #@! TO.C,P17*
X59500000Y132990001D03*
G04 #@! TD*
G04 #@! TO.C,P2*
X116500000Y132000000D03*
G04 #@! TD*
G04 #@! TO.C,P30*
X29500000Y133000000D03*
G04 #@! TD*
G04 #@! TO.C,P34*
X29500000Y128000000D03*
G04 #@! TD*
G04 #@! TO.C,P56*
X96000000Y35600000D03*
G04 #@! TD*
G04 #@! TO.C,P31*
X26500000Y133000000D03*
G04 #@! TD*
G04 #@! TO.C,P4*
X107500000Y132000000D03*
G04 #@! TD*
G04 #@! TO.C,P40*
X107800000Y65600000D03*
G04 #@! TD*
G04 #@! TO.C,P12*
X74600000Y127500000D03*
G04 #@! TD*
G04 #@! TO.C,P23*
X59500000Y127500000D03*
G04 #@! TD*
D13*
G04 #@! TO.C,R23*
X40000000Y126905000D03*
X40000000Y123095000D03*
G04 #@! TD*
G04 #@! TO.C,R1*
X144200000Y126705000D03*
X144200000Y122895000D03*
G04 #@! TD*
D12*
G04 #@! TO.C,P36*
X63000000Y35600000D03*
G04 #@! TD*
G04 #@! TO.C,P14*
X68600000Y127500000D03*
G04 #@! TD*
G04 #@! TO.C,P41*
X107800000Y56600000D03*
G04 #@! TD*
G04 #@! TO.C,P13*
X71600000Y127500000D03*
G04 #@! TD*
D13*
G04 #@! TO.C,R31*
X15600000Y126905000D03*
X15600000Y123095000D03*
G04 #@! TD*
G04 #@! TO.C,R34*
X103200000Y126905000D03*
X103200000Y123095000D03*
G04 #@! TD*
D12*
G04 #@! TO.C,G6*
X40000000Y30000000D03*
X37460000Y30000000D03*
X34920000Y30000000D03*
X32380000Y30000000D03*
X29840000Y30000000D03*
X40000000Y32540000D03*
X37460000Y32540000D03*
X34920000Y32540000D03*
X32380000Y32540000D03*
X29840000Y32540000D03*
X40000000Y35080000D03*
X37460000Y35080000D03*
X34920000Y35080000D03*
X32380000Y35080000D03*
X29840000Y35080000D03*
G04 #@! TD*
D13*
G04 #@! TO.C,R16*
X115900000Y126905000D03*
X115900000Y123095000D03*
G04 #@! TD*
D12*
G04 #@! TO.C,P58*
X81000000Y35600000D03*
G04 #@! TD*
G04 #@! TO.C,P50*
X78000000Y35600000D03*
G04 #@! TD*
G04 #@! TO.C,P7*
X78400000Y133000000D03*
G04 #@! TD*
D15*
G04 #@! TO.C,H3*
X5000000Y137200000D03*
G04 #@! TD*
D12*
G04 #@! TO.C,P29*
X32500000Y133000000D03*
G04 #@! TD*
G04 #@! TO.C,P32*
X20000000Y133000000D03*
G04 #@! TD*
G04 #@! TO.C,P48*
X107800000Y79400000D03*
G04 #@! TD*
D13*
G04 #@! TO.C,R33*
X100600000Y126855021D03*
X100600000Y123045021D03*
G04 #@! TD*
D12*
G04 #@! TO.C,P66*
X43600000Y74800000D03*
G04 #@! TD*
G04 #@! TO.C,P33*
X17000000Y133000000D03*
G04 #@! TD*
D13*
G04 #@! TO.C,R21*
X68095000Y123000000D03*
X71905000Y123000000D03*
G04 #@! TD*
D12*
G04 #@! TO.C,P37*
X60000000Y35600000D03*
G04 #@! TD*
D13*
G04 #@! TO.C,F2*
X95400000Y127850000D03*
X95400000Y122950000D03*
G04 #@! TD*
D12*
G04 #@! TO.C,P8*
X74000000Y133000000D03*
G04 #@! TD*
G04 #@! TO.C,G3*
X12460000Y12000000D03*
X12460000Y14540000D03*
X12460000Y17080000D03*
X12460000Y19620000D03*
X12460000Y22160000D03*
X15000000Y12000000D03*
X15000000Y14540000D03*
X15000000Y17080000D03*
X15000000Y19620000D03*
X15000000Y22160000D03*
X17540000Y12000000D03*
X17540000Y14540000D03*
X17540000Y17080000D03*
X17540000Y19620000D03*
X17540000Y22160000D03*
G04 #@! TD*
D13*
G04 #@! TO.C,R26*
X35000000Y126905000D03*
X35000000Y123095000D03*
G04 #@! TD*
G04 #@! TO.C,R6*
X113400000Y126905000D03*
X113400000Y123095000D03*
G04 #@! TD*
D12*
G04 #@! TO.C,P9*
X84800000Y127500000D03*
G04 #@! TD*
G04 #@! TO.C,P60*
X43500000Y99000000D03*
G04 #@! TD*
G04 #@! TO.C,P54*
X84000000Y35600000D03*
G04 #@! TD*
D13*
G04 #@! TO.C,R18*
X105800000Y126905000D03*
X105800000Y123095000D03*
G04 #@! TD*
D12*
G04 #@! TO.C,P22*
X62500000Y127500000D03*
G04 #@! TD*
D13*
G04 #@! TO.C,F3*
X47600000Y128050000D03*
X47600000Y123150000D03*
G04 #@! TD*
D12*
G04 #@! TO.C,P47*
X107800000Y82600000D03*
G04 #@! TD*
G04 #@! TO.C,P38*
X66000000Y35600000D03*
G04 #@! TD*
G04 #@! TO.C,J1*
G36*
G01*
X101000000Y13625000D02*
X101000000Y15075000D01*
G75*
G02*
X101250000Y15325000I250000J0D01*
G01*
X102450000Y15325000D01*
G75*
G02*
X102700000Y15075000I0J-250000D01*
G01*
X102700000Y13625000D01*
G75*
G02*
X102450000Y13375000I-250000J0D01*
G01*
X101250000Y13375000D01*
G75*
G02*
X101000000Y13625000I0J250000D01*
G01*
G37*
D18*
X104350000Y14350000D03*
X106850000Y14350000D03*
X109350000Y14350000D03*
X111850000Y14350000D03*
X114350000Y14350000D03*
X116850000Y14350000D03*
X119350000Y14350000D03*
X121850000Y14350000D03*
X124350000Y14350000D03*
G04 #@! TD*
D12*
G04 #@! TO.C,P43*
X107800000Y70000000D03*
G04 #@! TD*
D13*
G04 #@! TO.C,R24*
X20800000Y126905000D03*
X20800000Y123095000D03*
G04 #@! TD*
G04 #@! TO.C,R29*
X23400000Y126905000D03*
X23400000Y123095000D03*
G04 #@! TD*
D12*
G04 #@! TO.C,P52*
X72000000Y35600000D03*
G04 #@! TD*
G04 #@! TO.C,P49*
X75000000Y35600000D03*
G04 #@! TD*
G04 #@! TO.C,P11*
X78400000Y127500000D03*
G04 #@! TD*
G04 #@! TO.C,P62*
X43500000Y93000000D03*
G04 #@! TD*
G04 #@! TO.C,P1*
X119500000Y132000000D03*
G04 #@! TD*
D13*
G04 #@! TO.C,R22*
X42500000Y126905000D03*
X42500000Y123095000D03*
G04 #@! TD*
D19*
G04 #@! TO.C,J2*
X12950000Y150200000D03*
X47400000Y150200000D03*
X136250000Y150200000D03*
X94800000Y150200000D03*
D10*
X135600000Y140000000D03*
X132100000Y140000000D03*
X128600000Y140000000D03*
X125500000Y140000000D03*
X122500000Y140000000D03*
X119500000Y140000000D03*
X116500000Y140000000D03*
X113500000Y140000000D03*
X110500000Y140000000D03*
X107500000Y140000000D03*
X104500000Y140000000D03*
X101400000Y140000000D03*
X97900000Y140000000D03*
X135600000Y144500000D03*
X132100000Y144500000D03*
X128600000Y144500000D03*
X125500000Y144500000D03*
X122500000Y144500000D03*
X119500000Y144500000D03*
X116500000Y144500000D03*
X113500000Y144500000D03*
X110500000Y144500000D03*
X107500000Y144500000D03*
X104500000Y144500000D03*
X101400000Y144500000D03*
X97900000Y144500000D03*
X91950000Y140000000D03*
X88950000Y140000000D03*
X85950000Y140000000D03*
X82950000Y140000000D03*
X79950000Y140000000D03*
X76950000Y140000000D03*
X73950000Y140000000D03*
X70950000Y140000000D03*
X91950000Y144500000D03*
X88950000Y144500000D03*
X85950000Y144500000D03*
X82950000Y144500000D03*
X79950000Y144500000D03*
X76950000Y144500000D03*
X73950000Y144500000D03*
X70950000Y144500000D03*
X65250000Y140000000D03*
X62250000Y140000000D03*
X59250000Y140000000D03*
X56250000Y140000000D03*
X53250000Y140000000D03*
X50250000Y140000000D03*
X65250000Y144500000D03*
X62250000Y144500000D03*
X59250000Y144500000D03*
X56250000Y144500000D03*
X53250000Y144500000D03*
X50250000Y144500000D03*
X44300000Y140000000D03*
X41200000Y140000000D03*
X38200000Y140000000D03*
X35200000Y140000000D03*
X32200000Y140000000D03*
X29200000Y140000000D03*
X26200000Y140000000D03*
X23200000Y140000000D03*
X20200000Y140000000D03*
X17100000Y140000000D03*
X13600000Y140000000D03*
X44300000Y144500000D03*
X41200000Y144500000D03*
X38200000Y144500000D03*
X35200000Y144500000D03*
X32200000Y144500000D03*
X29200000Y144500000D03*
X26200000Y144500000D03*
X23200000Y144500000D03*
X20200000Y144500000D03*
X17100000Y144500000D03*
X13600000Y144500000D03*
G04 #@! TD*
D12*
G04 #@! TO.C,P63*
X43500000Y84000000D03*
G04 #@! TD*
D13*
G04 #@! TO.C,R8*
X104500000Y134905000D03*
X104500000Y131095000D03*
G04 #@! TD*
G04 #@! TO.C,R14*
X120900000Y126905000D03*
X120900000Y123095000D03*
G04 #@! TD*
G04 #@! TO.C,R13*
X126000000Y126905000D03*
X126000000Y123095000D03*
G04 #@! TD*
G04 #@! TO.C,R2*
X139000000Y126705000D03*
X139000000Y122895000D03*
G04 #@! TD*
D12*
G04 #@! TO.C,P6*
X81600000Y133000000D03*
G04 #@! TD*
D13*
G04 #@! TO.C,R19*
X88000000Y127105000D03*
X88000000Y123295000D03*
G04 #@! TD*
G04 #@! TO.C,R10*
X141600000Y126705000D03*
X141600000Y122895000D03*
G04 #@! TD*
D12*
G04 #@! TO.C,G4*
X27460000Y12000000D03*
X27460000Y14540000D03*
X27460000Y17080000D03*
X27460000Y19620000D03*
X27460000Y22160000D03*
X30000000Y12000000D03*
X30000000Y14540000D03*
X30000000Y17080000D03*
X30000000Y19620000D03*
X30000000Y22160000D03*
X32540000Y12000000D03*
X32540000Y14540000D03*
X32540000Y17080000D03*
X32540000Y19620000D03*
X32540000Y22160000D03*
G04 #@! TD*
G04 #@! TO.C,P39*
X43500000Y66500000D03*
G04 #@! TD*
G04 #@! TO.C,P42*
X107800000Y61200000D03*
G04 #@! TD*
G04 #@! TO.C,P46*
X107800000Y85800000D03*
G04 #@! TD*
G04 #@! TO.C,P20*
X50500000Y133000000D03*
G04 #@! TD*
G04 #@! TO.C,P16*
X62500000Y133000000D03*
G04 #@! TD*
D13*
G04 #@! TO.C,R12*
X131200000Y126905000D03*
X131200000Y123095000D03*
G04 #@! TD*
G04 #@! TO.C,R30*
X18200000Y126905000D03*
X18200000Y123095000D03*
G04 #@! TD*
D12*
G04 #@! TO.C,P15*
X65500000Y133000000D03*
G04 #@! TD*
D13*
G04 #@! TO.C,R36*
X92800000Y127105000D03*
X92800000Y123295000D03*
G04 #@! TD*
D20*
G04 #@! TO.C,J5*
X5400000Y34000000D03*
G04 #@! TD*
M02*
