G04 #@! TF.GenerationSoftware,KiCad,Pcbnew,(5.99.0-13086-gffd1139cfe)*
G04 #@! TF.CreationDate,2021-12-30T00:07:05+03:00*
G04 #@! TF.ProjectId,proteus-mitsubishi76-adapter,70726f74-6575-4732-9d6d-697473756269,rev?*
G04 #@! TF.SameCoordinates,PX88c1c40PYce16ca0*
G04 #@! TF.FileFunction,Paste,Top*
G04 #@! TF.FilePolarity,Positive*
%FSLAX46Y46*%
G04 Gerber Fmt 4.6, Leading zero omitted, Abs format (unit mm)*
G04 Created by KiCad (PCBNEW (5.99.0-13086-gffd1139cfe)) date 2021-12-30 00:07:05*
%MOMM*%
%LPD*%
G01*
G04 APERTURE LIST*
%ADD10O,0.000001X0.000001*%
%ADD11R,1.800000X2.500000*%
%ADD12R,1.500000X2.000000*%
%ADD13R,3.800000X2.000000*%
G04 APERTURE END LIST*
G04 #@! TO.C,R28*
G36*
G01*
X25375000Y126450001D02*
X26625000Y126450001D01*
G75*
G02*
X26725000Y126350001I0J-100000D01*
G01*
X26725000Y125550001D01*
G75*
G02*
X26625000Y125450001I-100000J0D01*
G01*
X25375000Y125450001D01*
G75*
G02*
X25275000Y125550001I0J100000D01*
G01*
X25275000Y126350001D01*
G75*
G02*
X25375000Y126450001I100000J0D01*
G01*
G37*
G36*
G01*
X25375000Y124549979D02*
X26625000Y124549979D01*
G75*
G02*
X26725000Y124449979I0J-100000D01*
G01*
X26725000Y123649979D01*
G75*
G02*
X26625000Y123549979I-100000J0D01*
G01*
X25375000Y123549979D01*
G75*
G02*
X25275000Y123649979I0J100000D01*
G01*
X25275000Y124449979D01*
G75*
G02*
X25375000Y124549979I100000J0D01*
G01*
G37*
G04 #@! TD*
G04 #@! TO.C,R9*
G36*
G01*
X146175000Y126250001D02*
X147425000Y126250001D01*
G75*
G02*
X147525000Y126150001I0J-100000D01*
G01*
X147525000Y125350001D01*
G75*
G02*
X147425000Y125250001I-100000J0D01*
G01*
X146175000Y125250001D01*
G75*
G02*
X146075000Y125350001I0J100000D01*
G01*
X146075000Y126150001D01*
G75*
G02*
X146175000Y126250001I100000J0D01*
G01*
G37*
G36*
G01*
X146175000Y124349979D02*
X147425000Y124349979D01*
G75*
G02*
X147525000Y124249979I0J-100000D01*
G01*
X147525000Y123449979D01*
G75*
G02*
X147425000Y123349979I-100000J0D01*
G01*
X146175000Y123349979D01*
G75*
G02*
X146075000Y123449979I0J100000D01*
G01*
X146075000Y124249979D01*
G75*
G02*
X146175000Y124349979I100000J0D01*
G01*
G37*
G04 #@! TD*
D10*
G04 #@! TO.C,M2*
X46556666Y28587499D03*
G04 #@! TD*
G04 #@! TO.C,R3*
G36*
G01*
X133175000Y126250001D02*
X134425000Y126250001D01*
G75*
G02*
X134525000Y126150001I0J-100000D01*
G01*
X134525000Y125350001D01*
G75*
G02*
X134425000Y125250001I-100000J0D01*
G01*
X133175000Y125250001D01*
G75*
G02*
X133075000Y125350001I0J100000D01*
G01*
X133075000Y126150001D01*
G75*
G02*
X133175000Y126250001I100000J0D01*
G01*
G37*
G36*
G01*
X133175000Y124349979D02*
X134425000Y124349979D01*
G75*
G02*
X134525000Y124249979I0J-100000D01*
G01*
X134525000Y123449979D01*
G75*
G02*
X134425000Y123349979I-100000J0D01*
G01*
X133175000Y123349979D01*
G75*
G02*
X133075000Y123449979I0J100000D01*
G01*
X133075000Y124249979D01*
G75*
G02*
X133175000Y124349979I100000J0D01*
G01*
G37*
G04 #@! TD*
G04 #@! TO.C,R17*
G36*
G01*
X110275000Y126450001D02*
X111525000Y126450001D01*
G75*
G02*
X111625000Y126350001I0J-100000D01*
G01*
X111625000Y125550001D01*
G75*
G02*
X111525000Y125450001I-100000J0D01*
G01*
X110275000Y125450001D01*
G75*
G02*
X110175000Y125550001I0J100000D01*
G01*
X110175000Y126350001D01*
G75*
G02*
X110275000Y126450001I100000J0D01*
G01*
G37*
G36*
G01*
X110275000Y124549979D02*
X111525000Y124549979D01*
G75*
G02*
X111625000Y124449979I0J-100000D01*
G01*
X111625000Y123649979D01*
G75*
G02*
X111525000Y123549979I-100000J0D01*
G01*
X110275000Y123549979D01*
G75*
G02*
X110175000Y123649979I0J100000D01*
G01*
X110175000Y124449979D01*
G75*
G02*
X110275000Y124549979I100000J0D01*
G01*
G37*
G04 #@! TD*
G04 #@! TO.C,R35*
G36*
G01*
X89775000Y126650001D02*
X91025000Y126650001D01*
G75*
G02*
X91125000Y126550001I0J-100000D01*
G01*
X91125000Y125750001D01*
G75*
G02*
X91025000Y125650001I-100000J0D01*
G01*
X89775000Y125650001D01*
G75*
G02*
X89675000Y125750001I0J100000D01*
G01*
X89675000Y126550001D01*
G75*
G02*
X89775000Y126650001I100000J0D01*
G01*
G37*
G36*
G01*
X89775000Y124749979D02*
X91025000Y124749979D01*
G75*
G02*
X91125000Y124649979I0J-100000D01*
G01*
X91125000Y123849979D01*
G75*
G02*
X91025000Y123749979I-100000J0D01*
G01*
X89775000Y123749979D01*
G75*
G02*
X89675000Y123849979I0J100000D01*
G01*
X89675000Y124649979D01*
G75*
G02*
X89775000Y124749979I100000J0D01*
G01*
G37*
G04 #@! TD*
G04 #@! TO.C,R15*
G36*
G01*
X117775000Y126450001D02*
X119025000Y126450001D01*
G75*
G02*
X119125000Y126350001I0J-100000D01*
G01*
X119125000Y125550001D01*
G75*
G02*
X119025000Y125450001I-100000J0D01*
G01*
X117775000Y125450001D01*
G75*
G02*
X117675000Y125550001I0J100000D01*
G01*
X117675000Y126350001D01*
G75*
G02*
X117775000Y126450001I100000J0D01*
G01*
G37*
G36*
G01*
X117775000Y124549979D02*
X119025000Y124549979D01*
G75*
G02*
X119125000Y124449979I0J-100000D01*
G01*
X119125000Y123649979D01*
G75*
G02*
X119025000Y123549979I-100000J0D01*
G01*
X117775000Y123549979D01*
G75*
G02*
X117675000Y123649979I0J100000D01*
G01*
X117675000Y124449979D01*
G75*
G02*
X117775000Y124549979I100000J0D01*
G01*
G37*
G04 #@! TD*
G04 #@! TO.C,R11*
G36*
G01*
X135775000Y126250001D02*
X137025000Y126250001D01*
G75*
G02*
X137125000Y126150001I0J-100000D01*
G01*
X137125000Y125350001D01*
G75*
G02*
X137025000Y125250001I-100000J0D01*
G01*
X135775000Y125250001D01*
G75*
G02*
X135675000Y125350001I0J100000D01*
G01*
X135675000Y126150001D01*
G75*
G02*
X135775000Y126250001I100000J0D01*
G01*
G37*
G36*
G01*
X135775000Y124349979D02*
X137025000Y124349979D01*
G75*
G02*
X137125000Y124249979I0J-100000D01*
G01*
X137125000Y123449979D01*
G75*
G02*
X137025000Y123349979I-100000J0D01*
G01*
X135775000Y123349979D01*
G75*
G02*
X135675000Y123449979I0J100000D01*
G01*
X135675000Y124249979D01*
G75*
G02*
X135775000Y124349979I100000J0D01*
G01*
G37*
G04 #@! TD*
D11*
G04 #@! TO.C,D3*
X102800000Y114600000D03*
X102800000Y118600000D03*
G04 #@! TD*
G04 #@! TO.C,R39*
G36*
G01*
X89185000Y94220000D02*
X88815000Y94220000D01*
G75*
G02*
X88680000Y94355000I0J135000D01*
G01*
X88680000Y94625000D01*
G75*
G02*
X88815000Y94760000I135000J0D01*
G01*
X89185000Y94760000D01*
G75*
G02*
X89320000Y94625000I0J-135000D01*
G01*
X89320000Y94355000D01*
G75*
G02*
X89185000Y94220000I-135000J0D01*
G01*
G37*
G36*
G01*
X89185000Y95240000D02*
X88815000Y95240000D01*
G75*
G02*
X88680000Y95375000I0J135000D01*
G01*
X88680000Y95645000D01*
G75*
G02*
X88815000Y95780000I135000J0D01*
G01*
X89185000Y95780000D01*
G75*
G02*
X89320000Y95645000I0J-135000D01*
G01*
X89320000Y95375000D01*
G75*
G02*
X89185000Y95240000I-135000J0D01*
G01*
G37*
G04 #@! TD*
D12*
G04 #@! TO.C,Q3*
X82100000Y92500000D03*
X84400000Y92500000D03*
X86700000Y92500000D03*
D13*
X84400000Y98800000D03*
G04 #@! TD*
G04 #@! TO.C,R5*
G36*
G01*
X122775000Y126450001D02*
X124025000Y126450001D01*
G75*
G02*
X124125000Y126350001I0J-100000D01*
G01*
X124125000Y125550001D01*
G75*
G02*
X124025000Y125450001I-100000J0D01*
G01*
X122775000Y125450001D01*
G75*
G02*
X122675000Y125550001I0J100000D01*
G01*
X122675000Y126350001D01*
G75*
G02*
X122775000Y126450001I100000J0D01*
G01*
G37*
G36*
G01*
X122775000Y124549979D02*
X124025000Y124549979D01*
G75*
G02*
X124125000Y124449979I0J-100000D01*
G01*
X124125000Y123649979D01*
G75*
G02*
X124025000Y123549979I-100000J0D01*
G01*
X122775000Y123549979D01*
G75*
G02*
X122675000Y123649979I0J100000D01*
G01*
X122675000Y124449979D01*
G75*
G02*
X122775000Y124549979I100000J0D01*
G01*
G37*
G04 #@! TD*
D11*
G04 #@! TO.C,D2*
X106800000Y114600000D03*
X106800000Y118600000D03*
G04 #@! TD*
D12*
G04 #@! TO.C,Q4*
X82100000Y104850000D03*
X84400000Y104850000D03*
X86700000Y104850000D03*
D13*
X84400000Y111150000D03*
G04 #@! TD*
G04 #@! TO.C,R32*
G36*
G01*
X36875000Y126450001D02*
X38125000Y126450001D01*
G75*
G02*
X38225000Y126350001I0J-100000D01*
G01*
X38225000Y125550001D01*
G75*
G02*
X38125000Y125450001I-100000J0D01*
G01*
X36875000Y125450001D01*
G75*
G02*
X36775000Y125550001I0J100000D01*
G01*
X36775000Y126350001D01*
G75*
G02*
X36875000Y126450001I100000J0D01*
G01*
G37*
G36*
G01*
X36875000Y124549979D02*
X38125000Y124549979D01*
G75*
G02*
X38225000Y124449979I0J-100000D01*
G01*
X38225000Y123649979D01*
G75*
G02*
X38125000Y123549979I-100000J0D01*
G01*
X36875000Y123549979D01*
G75*
G02*
X36775000Y123649979I0J100000D01*
G01*
X36775000Y124449979D01*
G75*
G02*
X36875000Y124549979I100000J0D01*
G01*
G37*
G04 #@! TD*
G04 #@! TO.C,F1*
G36*
G01*
X97100000Y126505010D02*
X97100000Y127195010D01*
G75*
G02*
X97330000Y127425010I230000J0D01*
G01*
X98670000Y127425010D01*
G75*
G02*
X98900000Y127195010I0J-230000D01*
G01*
X98900000Y126505010D01*
G75*
G02*
X98670000Y126275010I-230000J0D01*
G01*
X97330000Y126275010D01*
G75*
G02*
X97100000Y126505010I0J230000D01*
G01*
G37*
G36*
G01*
X97100000Y123604990D02*
X97100000Y124294990D01*
G75*
G02*
X97330000Y124524990I230000J0D01*
G01*
X98670000Y124524990D01*
G75*
G02*
X98900000Y124294990I0J-230000D01*
G01*
X98900000Y123604990D01*
G75*
G02*
X98670000Y123374990I-230000J0D01*
G01*
X97330000Y123374990D01*
G75*
G02*
X97100000Y123604990I0J230000D01*
G01*
G37*
G04 #@! TD*
G04 #@! TO.C,R4*
G36*
G01*
X127975000Y126450001D02*
X129225000Y126450001D01*
G75*
G02*
X129325000Y126350001I0J-100000D01*
G01*
X129325000Y125550001D01*
G75*
G02*
X129225000Y125450001I-100000J0D01*
G01*
X127975000Y125450001D01*
G75*
G02*
X127875000Y125550001I0J100000D01*
G01*
X127875000Y126350001D01*
G75*
G02*
X127975000Y126450001I100000J0D01*
G01*
G37*
G36*
G01*
X127975000Y124549979D02*
X129225000Y124549979D01*
G75*
G02*
X129325000Y124449979I0J-100000D01*
G01*
X129325000Y123649979D01*
G75*
G02*
X129225000Y123549979I-100000J0D01*
G01*
X127975000Y123549979D01*
G75*
G02*
X127875000Y123649979I0J100000D01*
G01*
X127875000Y124449979D01*
G75*
G02*
X127975000Y124549979I100000J0D01*
G01*
G37*
G04 #@! TD*
G04 #@! TO.C,R25*
G36*
G01*
X44375000Y126500000D02*
X45625000Y126500000D01*
G75*
G02*
X45725000Y126400000I0J-100000D01*
G01*
X45725000Y125600000D01*
G75*
G02*
X45625000Y125500000I-100000J0D01*
G01*
X44375000Y125500000D01*
G75*
G02*
X44275000Y125600000I0J100000D01*
G01*
X44275000Y126400000D01*
G75*
G02*
X44375000Y126500000I100000J0D01*
G01*
G37*
G36*
G01*
X44375000Y124599978D02*
X45625000Y124599978D01*
G75*
G02*
X45725000Y124499978I0J-100000D01*
G01*
X45725000Y123699978D01*
G75*
G02*
X45625000Y123599978I-100000J0D01*
G01*
X44375000Y123599978D01*
G75*
G02*
X44275000Y123699978I0J100000D01*
G01*
X44275000Y124499978D01*
G75*
G02*
X44375000Y124599978I100000J0D01*
G01*
G37*
G04 #@! TD*
G04 #@! TO.C,R20*
G36*
G01*
X77750001Y123625000D02*
X77750001Y122375000D01*
G75*
G02*
X77650001Y122275000I-100000J0D01*
G01*
X76850001Y122275000D01*
G75*
G02*
X76750001Y122375000I0J100000D01*
G01*
X76750001Y123625000D01*
G75*
G02*
X76850001Y123725000I100000J0D01*
G01*
X77650001Y123725000D01*
G75*
G02*
X77750001Y123625000I0J-100000D01*
G01*
G37*
G36*
G01*
X75849979Y123625000D02*
X75849979Y122375000D01*
G75*
G02*
X75749979Y122275000I-100000J0D01*
G01*
X74949979Y122275000D01*
G75*
G02*
X74849979Y122375000I0J100000D01*
G01*
X74849979Y123625000D01*
G75*
G02*
X74949979Y123725000I100000J0D01*
G01*
X75749979Y123725000D01*
G75*
G02*
X75849979Y123625000I0J-100000D01*
G01*
G37*
G04 #@! TD*
G04 #@! TO.C,R27*
G36*
G01*
X31775000Y126500000D02*
X33025000Y126500000D01*
G75*
G02*
X33125000Y126400000I0J-100000D01*
G01*
X33125000Y125600000D01*
G75*
G02*
X33025000Y125500000I-100000J0D01*
G01*
X31775000Y125500000D01*
G75*
G02*
X31675000Y125600000I0J100000D01*
G01*
X31675000Y126400000D01*
G75*
G02*
X31775000Y126500000I100000J0D01*
G01*
G37*
G36*
G01*
X31775000Y124599978D02*
X33025000Y124599978D01*
G75*
G02*
X33125000Y124499978I0J-100000D01*
G01*
X33125000Y123699978D01*
G75*
G02*
X33025000Y123599978I-100000J0D01*
G01*
X31775000Y123599978D01*
G75*
G02*
X31675000Y123699978I0J100000D01*
G01*
X31675000Y124499978D01*
G75*
G02*
X31775000Y124599978I100000J0D01*
G01*
G37*
G04 #@! TD*
G04 #@! TO.C,R7*
G36*
G01*
X107775000Y126450001D02*
X109025000Y126450001D01*
G75*
G02*
X109125000Y126350001I0J-100000D01*
G01*
X109125000Y125550001D01*
G75*
G02*
X109025000Y125450001I-100000J0D01*
G01*
X107775000Y125450001D01*
G75*
G02*
X107675000Y125550001I0J100000D01*
G01*
X107675000Y126350001D01*
G75*
G02*
X107775000Y126450001I100000J0D01*
G01*
G37*
G36*
G01*
X107775000Y124549979D02*
X109025000Y124549979D01*
G75*
G02*
X109125000Y124449979I0J-100000D01*
G01*
X109125000Y123649979D01*
G75*
G02*
X109025000Y123549979I-100000J0D01*
G01*
X107775000Y123549979D01*
G75*
G02*
X107675000Y123649979I0J100000D01*
G01*
X107675000Y124449979D01*
G75*
G02*
X107775000Y124549979I100000J0D01*
G01*
G37*
G04 #@! TD*
D11*
G04 #@! TO.C,D4*
X91900000Y98600000D03*
X91900000Y94600000D03*
G04 #@! TD*
G04 #@! TO.C,D7*
X78600000Y109100000D03*
X78600000Y105100000D03*
G04 #@! TD*
G04 #@! TO.C,R23*
G36*
G01*
X39375000Y126450001D02*
X40625000Y126450001D01*
G75*
G02*
X40725000Y126350001I0J-100000D01*
G01*
X40725000Y125550001D01*
G75*
G02*
X40625000Y125450001I-100000J0D01*
G01*
X39375000Y125450001D01*
G75*
G02*
X39275000Y125550001I0J100000D01*
G01*
X39275000Y126350001D01*
G75*
G02*
X39375000Y126450001I100000J0D01*
G01*
G37*
G36*
G01*
X39375000Y124549979D02*
X40625000Y124549979D01*
G75*
G02*
X40725000Y124449979I0J-100000D01*
G01*
X40725000Y123649979D01*
G75*
G02*
X40625000Y123549979I-100000J0D01*
G01*
X39375000Y123549979D01*
G75*
G02*
X39275000Y123649979I0J100000D01*
G01*
X39275000Y124449979D01*
G75*
G02*
X39375000Y124549979I100000J0D01*
G01*
G37*
G04 #@! TD*
G04 #@! TO.C,R1*
G36*
G01*
X143575000Y126250001D02*
X144825000Y126250001D01*
G75*
G02*
X144925000Y126150001I0J-100000D01*
G01*
X144925000Y125350001D01*
G75*
G02*
X144825000Y125250001I-100000J0D01*
G01*
X143575000Y125250001D01*
G75*
G02*
X143475000Y125350001I0J100000D01*
G01*
X143475000Y126150001D01*
G75*
G02*
X143575000Y126250001I100000J0D01*
G01*
G37*
G36*
G01*
X143575000Y124349979D02*
X144825000Y124349979D01*
G75*
G02*
X144925000Y124249979I0J-100000D01*
G01*
X144925000Y123449979D01*
G75*
G02*
X144825000Y123349979I-100000J0D01*
G01*
X143575000Y123349979D01*
G75*
G02*
X143475000Y123449979I0J100000D01*
G01*
X143475000Y124249979D01*
G75*
G02*
X143575000Y124349979I100000J0D01*
G01*
G37*
G04 #@! TD*
G04 #@! TO.C,D1*
X88000000Y114700000D03*
X88000000Y118700000D03*
G04 #@! TD*
G04 #@! TO.C,R31*
G36*
G01*
X14975000Y126450001D02*
X16225000Y126450001D01*
G75*
G02*
X16325000Y126350001I0J-100000D01*
G01*
X16325000Y125550001D01*
G75*
G02*
X16225000Y125450001I-100000J0D01*
G01*
X14975000Y125450001D01*
G75*
G02*
X14875000Y125550001I0J100000D01*
G01*
X14875000Y126350001D01*
G75*
G02*
X14975000Y126450001I100000J0D01*
G01*
G37*
G36*
G01*
X14975000Y124549979D02*
X16225000Y124549979D01*
G75*
G02*
X16325000Y124449979I0J-100000D01*
G01*
X16325000Y123649979D01*
G75*
G02*
X16225000Y123549979I-100000J0D01*
G01*
X14975000Y123549979D01*
G75*
G02*
X14875000Y123649979I0J100000D01*
G01*
X14875000Y124449979D01*
G75*
G02*
X14975000Y124549979I100000J0D01*
G01*
G37*
G04 #@! TD*
G04 #@! TO.C,R34*
G36*
G01*
X102575000Y126450001D02*
X103825000Y126450001D01*
G75*
G02*
X103925000Y126350001I0J-100000D01*
G01*
X103925000Y125550001D01*
G75*
G02*
X103825000Y125450001I-100000J0D01*
G01*
X102575000Y125450001D01*
G75*
G02*
X102475000Y125550001I0J100000D01*
G01*
X102475000Y126350001D01*
G75*
G02*
X102575000Y126450001I100000J0D01*
G01*
G37*
G36*
G01*
X102575000Y124549979D02*
X103825000Y124549979D01*
G75*
G02*
X103925000Y124449979I0J-100000D01*
G01*
X103925000Y123649979D01*
G75*
G02*
X103825000Y123549979I-100000J0D01*
G01*
X102575000Y123549979D01*
G75*
G02*
X102475000Y123649979I0J100000D01*
G01*
X102475000Y124449979D01*
G75*
G02*
X102575000Y124549979I100000J0D01*
G01*
G37*
G04 #@! TD*
G04 #@! TO.C,R16*
G36*
G01*
X115275000Y126450001D02*
X116525000Y126450001D01*
G75*
G02*
X116625000Y126350001I0J-100000D01*
G01*
X116625000Y125550001D01*
G75*
G02*
X116525000Y125450001I-100000J0D01*
G01*
X115275000Y125450001D01*
G75*
G02*
X115175000Y125550001I0J100000D01*
G01*
X115175000Y126350001D01*
G75*
G02*
X115275000Y126450001I100000J0D01*
G01*
G37*
G36*
G01*
X115275000Y124549979D02*
X116525000Y124549979D01*
G75*
G02*
X116625000Y124449979I0J-100000D01*
G01*
X116625000Y123649979D01*
G75*
G02*
X116525000Y123549979I-100000J0D01*
G01*
X115275000Y123549979D01*
G75*
G02*
X115175000Y123649979I0J100000D01*
G01*
X115175000Y124449979D01*
G75*
G02*
X115275000Y124549979I100000J0D01*
G01*
G37*
G04 #@! TD*
G04 #@! TO.C,R37*
G36*
G01*
X98480000Y90585000D02*
X98480000Y90215000D01*
G75*
G02*
X98345000Y90080000I-135000J0D01*
G01*
X98075000Y90080000D01*
G75*
G02*
X97940000Y90215000I0J135000D01*
G01*
X97940000Y90585000D01*
G75*
G02*
X98075000Y90720000I135000J0D01*
G01*
X98345000Y90720000D01*
G75*
G02*
X98480000Y90585000I0J-135000D01*
G01*
G37*
G36*
G01*
X97460000Y90585000D02*
X97460000Y90215000D01*
G75*
G02*
X97325000Y90080000I-135000J0D01*
G01*
X97055000Y90080000D01*
G75*
G02*
X96920000Y90215000I0J135000D01*
G01*
X96920000Y90585000D01*
G75*
G02*
X97055000Y90720000I135000J0D01*
G01*
X97325000Y90720000D01*
G75*
G02*
X97460000Y90585000I0J-135000D01*
G01*
G37*
G04 #@! TD*
G04 #@! TO.C,R38*
G36*
G01*
X98580000Y102985000D02*
X98580000Y102615000D01*
G75*
G02*
X98445000Y102480000I-135000J0D01*
G01*
X98175000Y102480000D01*
G75*
G02*
X98040000Y102615000I0J135000D01*
G01*
X98040000Y102985000D01*
G75*
G02*
X98175000Y103120000I135000J0D01*
G01*
X98445000Y103120000D01*
G75*
G02*
X98580000Y102985000I0J-135000D01*
G01*
G37*
G36*
G01*
X97560000Y102985000D02*
X97560000Y102615000D01*
G75*
G02*
X97425000Y102480000I-135000J0D01*
G01*
X97155000Y102480000D01*
G75*
G02*
X97020000Y102615000I0J135000D01*
G01*
X97020000Y102985000D01*
G75*
G02*
X97155000Y103120000I135000J0D01*
G01*
X97425000Y103120000D01*
G75*
G02*
X97560000Y102985000I0J-135000D01*
G01*
G37*
G04 #@! TD*
G04 #@! TO.C,R33*
G36*
G01*
X99975000Y126400022D02*
X101225000Y126400022D01*
G75*
G02*
X101325000Y126300022I0J-100000D01*
G01*
X101325000Y125500022D01*
G75*
G02*
X101225000Y125400022I-100000J0D01*
G01*
X99975000Y125400022D01*
G75*
G02*
X99875000Y125500022I0J100000D01*
G01*
X99875000Y126300022D01*
G75*
G02*
X99975000Y126400022I100000J0D01*
G01*
G37*
G36*
G01*
X99975000Y124500000D02*
X101225000Y124500000D01*
G75*
G02*
X101325000Y124400000I0J-100000D01*
G01*
X101325000Y123600000D01*
G75*
G02*
X101225000Y123500000I-100000J0D01*
G01*
X99975000Y123500000D01*
G75*
G02*
X99875000Y123600000I0J100000D01*
G01*
X99875000Y124400000D01*
G75*
G02*
X99975000Y124500000I100000J0D01*
G01*
G37*
G04 #@! TD*
G04 #@! TO.C,R40*
G36*
G01*
X88985000Y106610000D02*
X88615000Y106610000D01*
G75*
G02*
X88480000Y106745000I0J135000D01*
G01*
X88480000Y107015000D01*
G75*
G02*
X88615000Y107150000I135000J0D01*
G01*
X88985000Y107150000D01*
G75*
G02*
X89120000Y107015000I0J-135000D01*
G01*
X89120000Y106745000D01*
G75*
G02*
X88985000Y106610000I-135000J0D01*
G01*
G37*
G36*
G01*
X88985000Y107630000D02*
X88615000Y107630000D01*
G75*
G02*
X88480000Y107765000I0J135000D01*
G01*
X88480000Y108035000D01*
G75*
G02*
X88615000Y108170000I135000J0D01*
G01*
X88985000Y108170000D01*
G75*
G02*
X89120000Y108035000I0J-135000D01*
G01*
X89120000Y107765000D01*
G75*
G02*
X88985000Y107630000I-135000J0D01*
G01*
G37*
G04 #@! TD*
G04 #@! TO.C,R21*
G36*
G01*
X68549999Y122375000D02*
X68549999Y123625000D01*
G75*
G02*
X68649999Y123725000I100000J0D01*
G01*
X69449999Y123725000D01*
G75*
G02*
X69549999Y123625000I0J-100000D01*
G01*
X69549999Y122375000D01*
G75*
G02*
X69449999Y122275000I-100000J0D01*
G01*
X68649999Y122275000D01*
G75*
G02*
X68549999Y122375000I0J100000D01*
G01*
G37*
G36*
G01*
X70450021Y122375000D02*
X70450021Y123625000D01*
G75*
G02*
X70550021Y123725000I100000J0D01*
G01*
X71350021Y123725000D01*
G75*
G02*
X71450021Y123625000I0J-100000D01*
G01*
X71450021Y122375000D01*
G75*
G02*
X71350021Y122275000I-100000J0D01*
G01*
X70550021Y122275000D01*
G75*
G02*
X70450021Y122375000I0J100000D01*
G01*
G37*
G04 #@! TD*
G04 #@! TO.C,F2*
G36*
G01*
X94500000Y126505010D02*
X94500000Y127195010D01*
G75*
G02*
X94730000Y127425010I230000J0D01*
G01*
X96070000Y127425010D01*
G75*
G02*
X96300000Y127195010I0J-230000D01*
G01*
X96300000Y126505010D01*
G75*
G02*
X96070000Y126275010I-230000J0D01*
G01*
X94730000Y126275010D01*
G75*
G02*
X94500000Y126505010I0J230000D01*
G01*
G37*
G36*
G01*
X94500000Y123604990D02*
X94500000Y124294990D01*
G75*
G02*
X94730000Y124524990I230000J0D01*
G01*
X96070000Y124524990D01*
G75*
G02*
X96300000Y124294990I0J-230000D01*
G01*
X96300000Y123604990D01*
G75*
G02*
X96070000Y123374990I-230000J0D01*
G01*
X94730000Y123374990D01*
G75*
G02*
X94500000Y123604990I0J230000D01*
G01*
G37*
G04 #@! TD*
G04 #@! TO.C,D6*
X78700000Y97300000D03*
X78700000Y93300000D03*
G04 #@! TD*
G04 #@! TO.C,R26*
G36*
G01*
X34375000Y126450001D02*
X35625000Y126450001D01*
G75*
G02*
X35725000Y126350001I0J-100000D01*
G01*
X35725000Y125550001D01*
G75*
G02*
X35625000Y125450001I-100000J0D01*
G01*
X34375000Y125450001D01*
G75*
G02*
X34275000Y125550001I0J100000D01*
G01*
X34275000Y126350001D01*
G75*
G02*
X34375000Y126450001I100000J0D01*
G01*
G37*
G36*
G01*
X34375000Y124549979D02*
X35625000Y124549979D01*
G75*
G02*
X35725000Y124449979I0J-100000D01*
G01*
X35725000Y123649979D01*
G75*
G02*
X35625000Y123549979I-100000J0D01*
G01*
X34375000Y123549979D01*
G75*
G02*
X34275000Y123649979I0J100000D01*
G01*
X34275000Y124449979D01*
G75*
G02*
X34375000Y124549979I100000J0D01*
G01*
G37*
G04 #@! TD*
G04 #@! TO.C,R6*
G36*
G01*
X112775000Y126450001D02*
X114025000Y126450001D01*
G75*
G02*
X114125000Y126350001I0J-100000D01*
G01*
X114125000Y125550001D01*
G75*
G02*
X114025000Y125450001I-100000J0D01*
G01*
X112775000Y125450001D01*
G75*
G02*
X112675000Y125550001I0J100000D01*
G01*
X112675000Y126350001D01*
G75*
G02*
X112775000Y126450001I100000J0D01*
G01*
G37*
G36*
G01*
X112775000Y124549979D02*
X114025000Y124549979D01*
G75*
G02*
X114125000Y124449979I0J-100000D01*
G01*
X114125000Y123649979D01*
G75*
G02*
X114025000Y123549979I-100000J0D01*
G01*
X112775000Y123549979D01*
G75*
G02*
X112675000Y123649979I0J100000D01*
G01*
X112675000Y124449979D01*
G75*
G02*
X112775000Y124549979I100000J0D01*
G01*
G37*
G04 #@! TD*
G04 #@! TO.C,D5*
X92000000Y111000000D03*
X92000000Y107000000D03*
G04 #@! TD*
G04 #@! TO.C,R18*
G36*
G01*
X105175000Y126450001D02*
X106425000Y126450001D01*
G75*
G02*
X106525000Y126350001I0J-100000D01*
G01*
X106525000Y125550001D01*
G75*
G02*
X106425000Y125450001I-100000J0D01*
G01*
X105175000Y125450001D01*
G75*
G02*
X105075000Y125550001I0J100000D01*
G01*
X105075000Y126350001D01*
G75*
G02*
X105175000Y126450001I100000J0D01*
G01*
G37*
G36*
G01*
X105175000Y124549979D02*
X106425000Y124549979D01*
G75*
G02*
X106525000Y124449979I0J-100000D01*
G01*
X106525000Y123649979D01*
G75*
G02*
X106425000Y123549979I-100000J0D01*
G01*
X105175000Y123549979D01*
G75*
G02*
X105075000Y123649979I0J100000D01*
G01*
X105075000Y124449979D01*
G75*
G02*
X105175000Y124549979I100000J0D01*
G01*
G37*
G04 #@! TD*
G04 #@! TO.C,F3*
G36*
G01*
X46700000Y126705010D02*
X46700000Y127395010D01*
G75*
G02*
X46930000Y127625010I230000J0D01*
G01*
X48270000Y127625010D01*
G75*
G02*
X48500000Y127395010I0J-230000D01*
G01*
X48500000Y126705010D01*
G75*
G02*
X48270000Y126475010I-230000J0D01*
G01*
X46930000Y126475010D01*
G75*
G02*
X46700000Y126705010I0J230000D01*
G01*
G37*
G36*
G01*
X46700000Y123804990D02*
X46700000Y124494990D01*
G75*
G02*
X46930000Y124724990I230000J0D01*
G01*
X48270000Y124724990D01*
G75*
G02*
X48500000Y124494990I0J-230000D01*
G01*
X48500000Y123804990D01*
G75*
G02*
X48270000Y123574990I-230000J0D01*
G01*
X46930000Y123574990D01*
G75*
G02*
X46700000Y123804990I0J230000D01*
G01*
G37*
G04 #@! TD*
G04 #@! TO.C,R24*
G36*
G01*
X20175000Y126450001D02*
X21425000Y126450001D01*
G75*
G02*
X21525000Y126350001I0J-100000D01*
G01*
X21525000Y125550001D01*
G75*
G02*
X21425000Y125450001I-100000J0D01*
G01*
X20175000Y125450001D01*
G75*
G02*
X20075000Y125550001I0J100000D01*
G01*
X20075000Y126350001D01*
G75*
G02*
X20175000Y126450001I100000J0D01*
G01*
G37*
G36*
G01*
X20175000Y124549979D02*
X21425000Y124549979D01*
G75*
G02*
X21525000Y124449979I0J-100000D01*
G01*
X21525000Y123649979D01*
G75*
G02*
X21425000Y123549979I-100000J0D01*
G01*
X20175000Y123549979D01*
G75*
G02*
X20075000Y123649979I0J100000D01*
G01*
X20075000Y124449979D01*
G75*
G02*
X20175000Y124549979I100000J0D01*
G01*
G37*
G04 #@! TD*
G04 #@! TO.C,R29*
G36*
G01*
X22775000Y126450001D02*
X24025000Y126450001D01*
G75*
G02*
X24125000Y126350001I0J-100000D01*
G01*
X24125000Y125550001D01*
G75*
G02*
X24025000Y125450001I-100000J0D01*
G01*
X22775000Y125450001D01*
G75*
G02*
X22675000Y125550001I0J100000D01*
G01*
X22675000Y126350001D01*
G75*
G02*
X22775000Y126450001I100000J0D01*
G01*
G37*
G36*
G01*
X22775000Y124549979D02*
X24025000Y124549979D01*
G75*
G02*
X24125000Y124449979I0J-100000D01*
G01*
X24125000Y123649979D01*
G75*
G02*
X24025000Y123549979I-100000J0D01*
G01*
X22775000Y123549979D01*
G75*
G02*
X22675000Y123649979I0J100000D01*
G01*
X22675000Y124449979D01*
G75*
G02*
X22775000Y124549979I100000J0D01*
G01*
G37*
G04 #@! TD*
D12*
G04 #@! TO.C,Q2*
X95500000Y104850000D03*
X97800000Y104850000D03*
X100100000Y104850000D03*
D13*
X97800000Y111150000D03*
G04 #@! TD*
G04 #@! TO.C,R22*
G36*
G01*
X41875000Y126450001D02*
X43125000Y126450001D01*
G75*
G02*
X43225000Y126350001I0J-100000D01*
G01*
X43225000Y125550001D01*
G75*
G02*
X43125000Y125450001I-100000J0D01*
G01*
X41875000Y125450001D01*
G75*
G02*
X41775000Y125550001I0J100000D01*
G01*
X41775000Y126350001D01*
G75*
G02*
X41875000Y126450001I100000J0D01*
G01*
G37*
G36*
G01*
X41875000Y124549979D02*
X43125000Y124549979D01*
G75*
G02*
X43225000Y124449979I0J-100000D01*
G01*
X43225000Y123649979D01*
G75*
G02*
X43125000Y123549979I-100000J0D01*
G01*
X41875000Y123549979D01*
G75*
G02*
X41775000Y123649979I0J100000D01*
G01*
X41775000Y124449979D01*
G75*
G02*
X41875000Y124549979I100000J0D01*
G01*
G37*
G04 #@! TD*
G04 #@! TO.C,R8*
G36*
G01*
X103875000Y134450001D02*
X105125000Y134450001D01*
G75*
G02*
X105225000Y134350001I0J-100000D01*
G01*
X105225000Y133550001D01*
G75*
G02*
X105125000Y133450001I-100000J0D01*
G01*
X103875000Y133450001D01*
G75*
G02*
X103775000Y133550001I0J100000D01*
G01*
X103775000Y134350001D01*
G75*
G02*
X103875000Y134450001I100000J0D01*
G01*
G37*
G36*
G01*
X103875000Y132549979D02*
X105125000Y132549979D01*
G75*
G02*
X105225000Y132449979I0J-100000D01*
G01*
X105225000Y131649979D01*
G75*
G02*
X105125000Y131549979I-100000J0D01*
G01*
X103875000Y131549979D01*
G75*
G02*
X103775000Y131649979I0J100000D01*
G01*
X103775000Y132449979D01*
G75*
G02*
X103875000Y132549979I100000J0D01*
G01*
G37*
G04 #@! TD*
G04 #@! TO.C,R14*
G36*
G01*
X120275000Y126450001D02*
X121525000Y126450001D01*
G75*
G02*
X121625000Y126350001I0J-100000D01*
G01*
X121625000Y125550001D01*
G75*
G02*
X121525000Y125450001I-100000J0D01*
G01*
X120275000Y125450001D01*
G75*
G02*
X120175000Y125550001I0J100000D01*
G01*
X120175000Y126350001D01*
G75*
G02*
X120275000Y126450001I100000J0D01*
G01*
G37*
G36*
G01*
X120275000Y124549979D02*
X121525000Y124549979D01*
G75*
G02*
X121625000Y124449979I0J-100000D01*
G01*
X121625000Y123649979D01*
G75*
G02*
X121525000Y123549979I-100000J0D01*
G01*
X120275000Y123549979D01*
G75*
G02*
X120175000Y123649979I0J100000D01*
G01*
X120175000Y124449979D01*
G75*
G02*
X120275000Y124549979I100000J0D01*
G01*
G37*
G04 #@! TD*
G04 #@! TO.C,R13*
G36*
G01*
X125375000Y126450001D02*
X126625000Y126450001D01*
G75*
G02*
X126725000Y126350001I0J-100000D01*
G01*
X126725000Y125550001D01*
G75*
G02*
X126625000Y125450001I-100000J0D01*
G01*
X125375000Y125450001D01*
G75*
G02*
X125275000Y125550001I0J100000D01*
G01*
X125275000Y126350001D01*
G75*
G02*
X125375000Y126450001I100000J0D01*
G01*
G37*
G36*
G01*
X125375000Y124549979D02*
X126625000Y124549979D01*
G75*
G02*
X126725000Y124449979I0J-100000D01*
G01*
X126725000Y123649979D01*
G75*
G02*
X126625000Y123549979I-100000J0D01*
G01*
X125375000Y123549979D01*
G75*
G02*
X125275000Y123649979I0J100000D01*
G01*
X125275000Y124449979D01*
G75*
G02*
X125375000Y124549979I100000J0D01*
G01*
G37*
G04 #@! TD*
G04 #@! TO.C,R2*
G36*
G01*
X138375000Y126250001D02*
X139625000Y126250001D01*
G75*
G02*
X139725000Y126150001I0J-100000D01*
G01*
X139725000Y125350001D01*
G75*
G02*
X139625000Y125250001I-100000J0D01*
G01*
X138375000Y125250001D01*
G75*
G02*
X138275000Y125350001I0J100000D01*
G01*
X138275000Y126150001D01*
G75*
G02*
X138375000Y126250001I100000J0D01*
G01*
G37*
G36*
G01*
X138375000Y124349979D02*
X139625000Y124349979D01*
G75*
G02*
X139725000Y124249979I0J-100000D01*
G01*
X139725000Y123449979D01*
G75*
G02*
X139625000Y123349979I-100000J0D01*
G01*
X138375000Y123349979D01*
G75*
G02*
X138275000Y123449979I0J100000D01*
G01*
X138275000Y124249979D01*
G75*
G02*
X138375000Y124349979I100000J0D01*
G01*
G37*
G04 #@! TD*
G04 #@! TO.C,R19*
G36*
G01*
X87375000Y126650001D02*
X88625000Y126650001D01*
G75*
G02*
X88725000Y126550001I0J-100000D01*
G01*
X88725000Y125750001D01*
G75*
G02*
X88625000Y125650001I-100000J0D01*
G01*
X87375000Y125650001D01*
G75*
G02*
X87275000Y125750001I0J100000D01*
G01*
X87275000Y126550001D01*
G75*
G02*
X87375000Y126650001I100000J0D01*
G01*
G37*
G36*
G01*
X87375000Y124749979D02*
X88625000Y124749979D01*
G75*
G02*
X88725000Y124649979I0J-100000D01*
G01*
X88725000Y123849979D01*
G75*
G02*
X88625000Y123749979I-100000J0D01*
G01*
X87375000Y123749979D01*
G75*
G02*
X87275000Y123849979I0J100000D01*
G01*
X87275000Y124649979D01*
G75*
G02*
X87375000Y124749979I100000J0D01*
G01*
G37*
G04 #@! TD*
G04 #@! TO.C,R10*
G36*
G01*
X140975000Y126250001D02*
X142225000Y126250001D01*
G75*
G02*
X142325000Y126150001I0J-100000D01*
G01*
X142325000Y125350001D01*
G75*
G02*
X142225000Y125250001I-100000J0D01*
G01*
X140975000Y125250001D01*
G75*
G02*
X140875000Y125350001I0J100000D01*
G01*
X140875000Y126150001D01*
G75*
G02*
X140975000Y126250001I100000J0D01*
G01*
G37*
G36*
G01*
X140975000Y124349979D02*
X142225000Y124349979D01*
G75*
G02*
X142325000Y124249979I0J-100000D01*
G01*
X142325000Y123449979D01*
G75*
G02*
X142225000Y123349979I-100000J0D01*
G01*
X140975000Y123349979D01*
G75*
G02*
X140875000Y123449979I0J100000D01*
G01*
X140875000Y124249979D01*
G75*
G02*
X140975000Y124349979I100000J0D01*
G01*
G37*
G04 #@! TD*
G04 #@! TO.C,R12*
G36*
G01*
X130575000Y126450001D02*
X131825000Y126450001D01*
G75*
G02*
X131925000Y126350001I0J-100000D01*
G01*
X131925000Y125550001D01*
G75*
G02*
X131825000Y125450001I-100000J0D01*
G01*
X130575000Y125450001D01*
G75*
G02*
X130475000Y125550001I0J100000D01*
G01*
X130475000Y126350001D01*
G75*
G02*
X130575000Y126450001I100000J0D01*
G01*
G37*
G36*
G01*
X130575000Y124549979D02*
X131825000Y124549979D01*
G75*
G02*
X131925000Y124449979I0J-100000D01*
G01*
X131925000Y123649979D01*
G75*
G02*
X131825000Y123549979I-100000J0D01*
G01*
X130575000Y123549979D01*
G75*
G02*
X130475000Y123649979I0J100000D01*
G01*
X130475000Y124449979D01*
G75*
G02*
X130575000Y124549979I100000J0D01*
G01*
G37*
G04 #@! TD*
G04 #@! TO.C,R30*
G36*
G01*
X17575000Y126450001D02*
X18825000Y126450001D01*
G75*
G02*
X18925000Y126350001I0J-100000D01*
G01*
X18925000Y125550001D01*
G75*
G02*
X18825000Y125450001I-100000J0D01*
G01*
X17575000Y125450001D01*
G75*
G02*
X17475000Y125550001I0J100000D01*
G01*
X17475000Y126350001D01*
G75*
G02*
X17575000Y126450001I100000J0D01*
G01*
G37*
G36*
G01*
X17575000Y124549979D02*
X18825000Y124549979D01*
G75*
G02*
X18925000Y124449979I0J-100000D01*
G01*
X18925000Y123649979D01*
G75*
G02*
X18825000Y123549979I-100000J0D01*
G01*
X17575000Y123549979D01*
G75*
G02*
X17475000Y123649979I0J100000D01*
G01*
X17475000Y124449979D01*
G75*
G02*
X17575000Y124549979I100000J0D01*
G01*
G37*
G04 #@! TD*
D12*
G04 #@! TO.C,Q1*
X95400000Y92450000D03*
X97700000Y92450000D03*
X100000000Y92450000D03*
D13*
X97700000Y98750000D03*
G04 #@! TD*
G04 #@! TO.C,R36*
G36*
G01*
X92175000Y126650001D02*
X93425000Y126650001D01*
G75*
G02*
X93525000Y126550001I0J-100000D01*
G01*
X93525000Y125750001D01*
G75*
G02*
X93425000Y125650001I-100000J0D01*
G01*
X92175000Y125650001D01*
G75*
G02*
X92075000Y125750001I0J100000D01*
G01*
X92075000Y126550001D01*
G75*
G02*
X92175000Y126650001I100000J0D01*
G01*
G37*
G36*
G01*
X92175000Y124749979D02*
X93425000Y124749979D01*
G75*
G02*
X93525000Y124649979I0J-100000D01*
G01*
X93525000Y123849979D01*
G75*
G02*
X93425000Y123749979I-100000J0D01*
G01*
X92175000Y123749979D01*
G75*
G02*
X92075000Y123849979I0J100000D01*
G01*
X92075000Y124649979D01*
G75*
G02*
X92175000Y124749979I100000J0D01*
G01*
G37*
G04 #@! TD*
M02*
