G75*
G70*
%OFA0B0*%
%FSLAX25Y25*%
%IPPOS*%
%LPD*%
%AMOC8*
5,1,8,0,0,1.08239X$1,22.5*
%
%ADD11O,0.06693X0.07677*%
%ADD19C,0.15748*%
%ADD33R,0.07500X0.07874*%
%ADD34C,0.02913*%
%ADD37C,0.21260*%
%ADD39C,0.06693*%
%ADD40C,0.13780*%
%ADD41C,0.07874*%
%ADD48R,0.06693X0.06693*%
%ADD58C,0.02362*%
%ADD60O,0.06693X0.06693*%
%ADD67O,0.07500X0.07874*%
%ADD86C,0.09449*%
%ADD88C,0.03900*%
%ADD90C,0.06000*%
X0000000Y0000000D02*
%LPD*%
G01*
D41*
X0129921Y0451476D03*
X0129921Y0190059D03*
X0058661Y0195965D03*
X0397244Y0251083D03*
X0537402Y0195965D03*
X0058661Y0445571D03*
X0537402Y0445571D03*
X0204724Y0179823D03*
X0391339Y0179823D03*
X0466142Y0451476D03*
X0198819Y0251083D03*
X0466142Y0190059D03*
D86*
X0510630Y0234154D03*
X0510630Y0249902D03*
X0510630Y0265650D03*
X0510630Y0281398D03*
X0510630Y0297146D03*
X0510630Y0312894D03*
X0510630Y0328642D03*
X0510630Y0344390D03*
X0510630Y0360138D03*
X0510630Y0375886D03*
X0510630Y0391634D03*
X0510630Y0407382D03*
X0494882Y0242028D03*
X0494882Y0257776D03*
X0494882Y0273524D03*
X0494882Y0289272D03*
X0494882Y0305020D03*
X0494882Y0320768D03*
X0494882Y0336516D03*
X0494882Y0352264D03*
X0494882Y0368012D03*
X0494882Y0383760D03*
X0494882Y0399508D03*
X0479134Y0234154D03*
X0479134Y0249902D03*
X0479134Y0265650D03*
X0479134Y0281398D03*
X0479134Y0297146D03*
X0479134Y0312894D03*
X0479134Y0328642D03*
X0479134Y0344390D03*
X0479134Y0360138D03*
X0479134Y0375886D03*
X0479134Y0391634D03*
X0479134Y0407382D03*
X0242913Y0206594D03*
X0258661Y0206594D03*
X0274409Y0206594D03*
X0290157Y0206594D03*
X0305906Y0206594D03*
X0321654Y0206594D03*
X0337402Y0206594D03*
X0353150Y0206594D03*
X0250787Y0222343D03*
X0266535Y0222343D03*
X0282283Y0222343D03*
X0298031Y0222343D03*
X0313780Y0222343D03*
X0329528Y0222343D03*
X0345276Y0222343D03*
X0242913Y0238091D03*
X0258661Y0238091D03*
X0274409Y0238091D03*
X0290157Y0238091D03*
X0305906Y0238091D03*
X0321654Y0238091D03*
X0337402Y0238091D03*
X0353150Y0238091D03*
X0085433Y0407382D03*
X0085433Y0391634D03*
X0085433Y0375886D03*
X0085433Y0360138D03*
X0085433Y0344390D03*
X0085433Y0328642D03*
X0085433Y0312894D03*
X0085433Y0297146D03*
X0085433Y0281398D03*
X0085433Y0265650D03*
X0085433Y0249902D03*
X0085433Y0234154D03*
X0101181Y0399508D03*
X0101181Y0383760D03*
X0101181Y0368012D03*
X0101181Y0352264D03*
X0101181Y0336516D03*
X0101181Y0320768D03*
X0101181Y0305020D03*
X0101181Y0289272D03*
X0101181Y0273524D03*
X0101181Y0257776D03*
X0101181Y0242028D03*
X0116929Y0407382D03*
X0116929Y0391634D03*
X0116929Y0375886D03*
X0116929Y0360138D03*
X0116929Y0344390D03*
X0116929Y0328642D03*
X0116929Y0312894D03*
X0116929Y0297146D03*
X0116929Y0281398D03*
X0116929Y0265650D03*
X0116929Y0249902D03*
X0116929Y0234154D03*
D39*
X0198819Y0501969D03*
X0173228Y0523622D03*
X0321260Y0501969D03*
X0424409Y0375984D03*
D90*
X0102362Y0499626D03*
X0102362Y0484626D03*
X0577953Y0498839D03*
X0577953Y0483839D03*
D58*
X0187625Y0107333D03*
X0189692Y0110778D03*
X0192644Y0106152D03*
X0206621Y0106447D03*
D90*
X0526772Y0498839D03*
X0526772Y0483839D03*
D39*
X0210630Y0523622D03*
X0342520Y0140157D03*
X0354331Y0140157D03*
D90*
X0436614Y0499626D03*
X0436614Y0484626D03*
X0355906Y0500413D03*
X0355906Y0485413D03*
D39*
X0171260Y0354331D03*
D90*
X0466142Y0499626D03*
X0466142Y0484626D03*
D39*
X0210630Y0501969D03*
X0435039Y0519685D03*
X0171260Y0234252D03*
D90*
X0537008Y0498839D03*
X0537008Y0483839D03*
D39*
X0078740Y0047244D03*
X0078740Y0057244D03*
X0078740Y0067244D03*
X0078740Y0077244D03*
X0078740Y0087244D03*
X0088740Y0047244D03*
X0088740Y0057244D03*
X0088740Y0067244D03*
X0088740Y0077244D03*
X0088740Y0087244D03*
X0098740Y0047244D03*
X0098740Y0057244D03*
X0098740Y0067244D03*
X0098740Y0077244D03*
X0098740Y0087244D03*
X0424409Y0362992D03*
X0222441Y0501969D03*
X0049055Y0098425D03*
X0049055Y0108425D03*
X0049055Y0118425D03*
X0049055Y0128425D03*
X0049055Y0138425D03*
X0059055Y0098425D03*
X0059055Y0108425D03*
X0059055Y0118425D03*
X0059055Y0128425D03*
X0059055Y0138425D03*
X0069055Y0098425D03*
X0069055Y0108425D03*
X0069055Y0118425D03*
X0069055Y0128425D03*
X0069055Y0138425D03*
X0271654Y0140157D03*
D37*
X0019685Y0023622D03*
D39*
X0222441Y0523622D03*
D90*
X0485827Y0499626D03*
X0485827Y0484626D03*
D39*
X0366142Y0140157D03*
D90*
X0147638Y0499626D03*
X0147638Y0484626D03*
X0385827Y0503346D03*
X0385827Y0484055D03*
X0506299Y0499626D03*
X0506299Y0484626D03*
D39*
X0171260Y0318898D03*
D90*
X0177165Y0499823D03*
X0177165Y0484823D03*
D39*
X0257874Y0501969D03*
X0171260Y0342520D03*
X0139764Y0523622D03*
X0137795Y0047244D03*
X0137795Y0057244D03*
X0137795Y0067244D03*
X0137795Y0077244D03*
X0137795Y0087244D03*
X0147795Y0047244D03*
X0147795Y0057244D03*
X0147795Y0067244D03*
X0147795Y0077244D03*
X0147795Y0087244D03*
X0157795Y0047244D03*
X0157795Y0057244D03*
X0157795Y0067244D03*
X0157795Y0077244D03*
X0157795Y0087244D03*
D48*
X0232283Y0026181D03*
D60*
X0222283Y0026181D03*
X0212283Y0026181D03*
X0202283Y0026181D03*
X0192283Y0026181D03*
X0182283Y0026181D03*
D39*
X0424409Y0350394D03*
X0333858Y0523622D03*
X0078740Y0098425D03*
X0078740Y0108425D03*
X0078740Y0118425D03*
X0078740Y0128425D03*
X0078740Y0138425D03*
X0088740Y0098425D03*
X0088740Y0108425D03*
X0088740Y0118425D03*
X0088740Y0128425D03*
X0088740Y0138425D03*
X0098740Y0098425D03*
X0098740Y0108425D03*
X0098740Y0118425D03*
X0098740Y0128425D03*
X0098740Y0138425D03*
D90*
X0307894Y0484252D03*
X0292894Y0484252D03*
D39*
X0171260Y0377953D03*
D90*
X0127559Y0499823D03*
X0127559Y0484823D03*
X0426772Y0499626D03*
X0426772Y0484626D03*
D37*
X0566929Y0540157D03*
X0566929Y0023622D03*
D39*
X0234252Y0523583D03*
X0458661Y0519685D03*
X0116142Y0523622D03*
X0116142Y0503937D03*
X0377953Y0140157D03*
X0104331Y0523622D03*
X0423228Y0519685D03*
X0424409Y0258268D03*
X0293701Y0501969D03*
X0234252Y0501969D03*
D90*
X0157480Y0499626D03*
X0157480Y0484626D03*
X0567717Y0498839D03*
X0567717Y0483839D03*
D39*
X0248031Y0140157D03*
X0270079Y0501969D03*
X0424409Y0222835D03*
X0281890Y0501969D03*
D90*
X0061417Y0499626D03*
X0061417Y0484626D03*
X0406299Y0499626D03*
X0406299Y0484626D03*
D39*
X0157480Y0118110D03*
X0147480Y0118110D03*
X0137480Y0118110D03*
X0127480Y0118110D03*
X0117480Y0118110D03*
X0157480Y0128110D03*
X0147480Y0128110D03*
X0137480Y0128110D03*
X0127480Y0128110D03*
X0117480Y0128110D03*
X0157480Y0138110D03*
X0147480Y0138110D03*
X0137480Y0138110D03*
X0127480Y0138110D03*
X0117480Y0138110D03*
D90*
X0456299Y0499626D03*
X0456299Y0484626D03*
D39*
X0318898Y0140157D03*
X0307087Y0140157D03*
X0308661Y0523622D03*
D37*
X0019685Y0540157D03*
D39*
X0127953Y0523622D03*
X0078740Y0523622D03*
X0424409Y0312598D03*
D90*
X0396063Y0499429D03*
X0396063Y0484429D03*
D39*
X0171654Y0294488D03*
X0066929Y0523622D03*
D90*
X0268091Y0484252D03*
X0283091Y0484252D03*
D39*
X0236220Y0140157D03*
D90*
X0375591Y0503346D03*
X0375591Y0484055D03*
D39*
X0291339Y0523622D03*
X0049055Y0047244D03*
X0049055Y0057244D03*
X0049055Y0067244D03*
X0049055Y0077244D03*
X0049055Y0087244D03*
X0059055Y0047244D03*
X0059055Y0057244D03*
X0059055Y0067244D03*
X0059055Y0077244D03*
X0059055Y0087244D03*
X0069055Y0047244D03*
X0069055Y0057244D03*
X0069055Y0067244D03*
X0069055Y0077244D03*
X0069055Y0087244D03*
D90*
X0137795Y0499626D03*
X0137795Y0484626D03*
X0446457Y0499626D03*
X0446457Y0484626D03*
D39*
X0333858Y0501969D03*
X0171260Y0389764D03*
X0330709Y0140157D03*
D90*
X0416535Y0499626D03*
X0416535Y0484626D03*
D39*
X0246063Y0501969D03*
D90*
X0187402Y0504134D03*
X0187402Y0484843D03*
D39*
X0424409Y0325197D03*
X0259843Y0140157D03*
G36*
G01*
X0397638Y0053642D02*
X0397638Y0059350D01*
G75*
G02*
X0398622Y0060335I0000984J0000000D01*
G01*
X0403346Y0060335D01*
G75*
G02*
X0404331Y0059350I0000000J-000984D01*
G01*
X0404331Y0053642D01*
G75*
G02*
X0403346Y0052657I-000984J0000000D01*
G01*
X0398622Y0052657D01*
G75*
G02*
X0397638Y0053642I0000000J0000984D01*
G01*
G37*
D11*
X0410827Y0056496D03*
X0420669Y0056496D03*
X0430512Y0056496D03*
X0440354Y0056496D03*
X0450197Y0056496D03*
X0460039Y0056496D03*
X0469882Y0056496D03*
X0479724Y0056496D03*
X0489567Y0056496D03*
D39*
X0424409Y0275591D03*
D90*
X0081890Y0499626D03*
X0081890Y0484626D03*
X0092126Y0499626D03*
X0092126Y0484626D03*
D39*
X0283465Y0140157D03*
X0295276Y0140157D03*
X0308661Y0501969D03*
X0171260Y0366142D03*
X0470472Y0519685D03*
D90*
X0167323Y0499626D03*
X0167323Y0484626D03*
D40*
X0050984Y0591339D03*
X0186614Y0591339D03*
X0536417Y0591339D03*
X0373228Y0591339D03*
D41*
X0533858Y0551181D03*
X0520079Y0551181D03*
X0506299Y0551181D03*
X0494094Y0551181D03*
X0482283Y0551181D03*
X0470472Y0551181D03*
X0458661Y0551181D03*
X0446850Y0551181D03*
X0435039Y0551181D03*
X0423228Y0551181D03*
X0411417Y0551181D03*
X0399213Y0551181D03*
X0385433Y0551181D03*
X0533858Y0568898D03*
X0520079Y0568898D03*
X0506299Y0568898D03*
X0494094Y0568898D03*
X0482283Y0568898D03*
X0470472Y0568898D03*
X0458661Y0568898D03*
X0446850Y0568898D03*
X0435039Y0568898D03*
X0423228Y0568898D03*
X0411417Y0568898D03*
X0399213Y0568898D03*
X0385433Y0568898D03*
X0362008Y0551181D03*
X0350197Y0551181D03*
X0338386Y0551181D03*
X0326575Y0551181D03*
X0314764Y0551181D03*
X0302953Y0551181D03*
X0291142Y0551181D03*
X0279331Y0551181D03*
X0362008Y0568898D03*
X0350197Y0568898D03*
X0338386Y0568898D03*
X0326575Y0568898D03*
X0314764Y0568898D03*
X0302953Y0568898D03*
X0291142Y0568898D03*
X0279331Y0568898D03*
X0256890Y0551181D03*
X0245079Y0551181D03*
X0233268Y0551181D03*
X0221457Y0551181D03*
X0209646Y0551181D03*
X0197835Y0551181D03*
X0256890Y0568898D03*
X0245079Y0568898D03*
X0233268Y0568898D03*
X0221457Y0568898D03*
X0209646Y0568898D03*
X0197835Y0568898D03*
X0174409Y0551181D03*
X0162205Y0551181D03*
X0150394Y0551181D03*
X0138583Y0551181D03*
X0126772Y0551181D03*
X0114961Y0551181D03*
X0103150Y0551181D03*
X0091339Y0551181D03*
X0079528Y0551181D03*
X0067323Y0551181D03*
X0053543Y0551181D03*
X0174409Y0568898D03*
X0162205Y0568898D03*
X0150394Y0568898D03*
X0138583Y0568898D03*
X0126772Y0568898D03*
X0114961Y0568898D03*
X0103150Y0568898D03*
X0091339Y0568898D03*
X0079528Y0568898D03*
X0067323Y0568898D03*
X0053543Y0568898D03*
D39*
X0171260Y0330709D03*
D90*
X0411417Y0531122D03*
X0411417Y0516122D03*
X0475984Y0499626D03*
X0475984Y0484626D03*
X0496063Y0499626D03*
X0496063Y0484626D03*
X0547244Y0498839D03*
X0547244Y0483839D03*
D39*
X0321260Y0523622D03*
D90*
X0346457Y0500413D03*
X0346457Y0485413D03*
X0557480Y0498839D03*
X0557480Y0483839D03*
D39*
X0108110Y0047244D03*
X0108110Y0057244D03*
X0108110Y0067244D03*
X0108110Y0077244D03*
X0108110Y0087244D03*
X0118110Y0047244D03*
X0118110Y0057244D03*
X0118110Y0067244D03*
X0118110Y0077244D03*
X0118110Y0087244D03*
X0128110Y0047244D03*
X0128110Y0057244D03*
X0128110Y0067244D03*
X0128110Y0077244D03*
X0128110Y0087244D03*
X0171260Y0261811D03*
X0424409Y0240945D03*
X0424409Y0337795D03*
X0198819Y0523622D03*
X0246063Y0523622D03*
D90*
X0516535Y0499626D03*
X0516535Y0484626D03*
X0071654Y0499626D03*
X0071654Y0484626D03*
D39*
X0257874Y0523622D03*
D90*
X0365354Y0500413D03*
X0365354Y0485413D03*
D19*
X0021260Y0133858D03*
X0224213Y0072736D02*
%LPD*%
G01*
D33*
X0364922Y0124311D03*
D67*
X0354922Y0124311D03*
X0344922Y0124311D03*
D88*
X0228386Y0083563D03*
X0248386Y0079563D03*
X0248386Y0087563D03*
X0182211Y0137648D02*
G01*
G75*
D34*
X0206620Y0106447D02*
D03*
X0192644Y0106152D02*
D03*
X0187624Y0107333D02*
D03*
X0189691Y0110778D02*
D03*
M02*
