M48
INCH,TZ
T01C0.013750
T02C0.032000
T03C0.038400
T04C0.043300
T05C0.053100
T06C0.068900
T07C0.078700
T08C0.137800
T09C0.196900
%
T01
X512Y5000
X906Y61220
X4016Y630
X12717Y31535
X13031Y37205
X13031Y36417
X13031Y35630
X13031Y34843
X13307Y34016
X13543Y32677
X14291Y30709
X15709Y40000
X15984Y38071
X15984Y36929
X16102Y35866
X16142Y34843
X17402Y44724
X17441Y27913
X17638Y24803
X17953Y30787
X25394Y13504
X30118Y13543
X34843Y13504
X35394Y39016
X35394Y38661
X35394Y34016
X35394Y33386
X36220Y45197
X36496Y45472
X53937Y630
X57913Y60945
X57992Y51614
X58110Y5197
X58268Y55906
X22638Y11722
X22638Y11329
X22638Y9931
X22638Y9537
X37697Y9104
X37697Y8711
X37697Y8317
X37697Y7923
X1969Y60630
X1969Y51181
X1969Y47244
X1969Y43307
X1969Y39370
X1969Y35433
X1969Y31496
X1969Y27559
X1969Y23622
X1969Y19685
X1969Y15748
X1969Y11811
X1969Y7874
X3425Y6024
X3543Y10236
X3858Y51024
X3937Y59055
X4213Y39213
X4291Y44449
X4291Y35276
X4488Y30827
X5118Y25591
X5118Y21654
X5118Y16142
X5906Y43307
X5906Y1969
X6142Y47559
X6654Y31417
X6654Y28976
X6772Y42126
X6772Y38307
X6772Y33386
X7008Y55709
X7205Y28150
X7756Y45748
X7874Y59055
X8031Y22795
X8071Y24291
X8071Y17283
X8110Y20866
X8386Y43346
X8425Y46890
X8543Y30512
X8583Y55709
X8661Y27323
X9291Y28976
X9331Y25039
X9370Y26378
X9724Y48031
X9843Y60630
X9843Y43307
X9843Y1969
X10039Y46102
X10630Y55709
X10748Y40709
X10748Y12047
X10787Y10197
X11575Y48071
X11575Y46535
X11614Y49567
X11654Y43071
X11772Y55709
X11811Y59055
X12126Y45197
X12165Y10236
X12402Y43819
X12441Y41575
X12756Y32992
X12992Y55709
X13071Y44291
X13110Y40748
X13110Y38819
X13268Y48071
X13307Y46535
X13465Y41654
X13726Y41828
X13780Y60630
X13780Y1969
X14002Y41980
X14094Y55709
X14173Y21260
X14173Y16142
X14291Y48031
X14291Y45591
X14488Y41929
X14685Y44016
X14764Y55748
X14882Y10236
X15236Y47992
X15236Y46929
X15669Y54685
X15748Y59055
X15787Y43031
X16142Y45197
X16260Y48031
X16535Y55709
X16850Y14843
X16969Y19331
X17205Y45984
X17244Y48031
X17283Y42874
X17717Y41339
X17717Y5906
X17874Y11732
X17874Y10236
X17874Y8976
X17953Y12913
X18071Y54252
X18071Y51850
X18268Y48031
X18504Y60630
X18543Y20709
X18858Y17992
X18898Y46457
X18937Y40118
X19016Y14803
X19055Y14016
X19094Y44921
X19409Y49488
X19528Y51535
X19567Y53740
X19606Y21378
X19606Y19094
X19646Y29764
X19764Y8898
X19803Y55787
X20276Y48071
X20472Y20315
X20472Y14016
X20551Y22598
X20787Y46417
X20945Y55787
X20945Y7008
X21181Y8898
X21260Y13386
X21260Y12205
X21299Y11024
X21496Y21496
X21654Y59055
X21654Y45276
X21654Y41339
X21654Y37402
X21654Y33465
X21654Y25591
X21654Y17717
X21693Y49409
X21732Y14803
X22126Y55787
X22205Y12402
X22205Y10591
X22205Y8425
X22205Y6969
X22717Y13543
X22953Y22559
X22953Y20354
X23622Y60630
X23622Y55709
X23622Y24173
X24016Y49488
X24055Y6890
X24724Y20039
X24803Y55709
X25039Y23386
X25118Y4331
X25472Y24961
X25472Y17283
X25591Y59055
X25591Y45276
X25591Y41339
X25591Y37402
X25591Y33465
X25591Y29528
X25591Y27559
X25866Y22087
X25906Y49449
X25984Y1969
X26063Y6850
X26260Y20000
X26535Y49055
X26772Y17480
X27323Y19528
X27323Y4331
X27402Y22047
X27559Y60630
X27717Y17244
X28189Y55709
X28346Y1969
X28386Y6890
X28543Y19567
X28740Y46457
X28740Y38465
X28937Y21496
X29016Y42047
X29094Y17441
X29370Y55709
X29449Y19488
X29528Y59055
X29528Y33465
X29528Y29528
X29528Y25591
X29764Y4331
X29843Y43976
X30079Y17126
X30197Y19488
X30315Y21496
X30433Y45039
X30551Y55709
X30709Y35551
X30709Y1969
X30827Y6890
X30945Y19449
X30984Y17362
X31181Y23268
X31496Y60630
X31535Y49528
X31732Y55709
X31732Y18976
X31969Y39764
X32087Y44449
X32205Y4331
X32244Y48819
X32480Y22795
X32559Y18307
X32638Y19921
X32795Y49567
X32913Y55709
X33268Y19921
X33425Y6890
X33465Y59055
X33465Y33465
X33465Y29528
X33465Y25591
X33465Y1969
X33661Y45984
X33701Y16850
X33740Y48740
X33819Y44488
X34055Y22795
X34055Y21535
X34134Y41850
X34134Y37008
X34252Y19921
X34409Y54724
X34488Y39724
X34606Y41280
X34606Y36417
X34764Y16850
X35079Y22835
X35118Y50354
X35276Y46732
X35276Y4409
X35433Y60630
X35630Y54724
X35748Y19488
X35787Y45827
X36024Y16850
X36063Y50354
X36102Y47992
X36299Y40512
X36457Y21181
X36457Y20512
X36772Y18425
X36772Y6890
X36850Y36339
X36850Y23622
X36969Y37874
X37165Y39331
X37165Y16850
X37205Y40512
X37323Y35394
X37323Y25551
X37362Y44882
X37402Y29528
X37402Y1969
X37480Y32913
X37598Y40157
X37835Y45512
X37992Y45984
X38189Y13228
X38189Y12047
X38189Y10709
X38189Y9399
X38189Y7480
X38268Y16220
X38307Y18386
X38307Y15551
X38937Y45000
X39134Y33110
X39252Y47992
X39252Y46535
X39331Y35354
X39370Y59055
X39370Y36969
X39370Y29528
X39370Y21654
X39409Y40709
X39488Y51181
X39488Y43819
X39685Y40157
X39803Y7480
X39843Y37205
X39843Y36378
X39843Y16535
X39843Y13740
X39843Y10748
X39843Y9409
X39882Y41260
X40079Y39252
X40118Y47992
X40236Y33031
X40315Y52402
X40315Y44252
X40354Y42677
X40354Y7480
X40512Y37323
X40551Y36732
X40787Y41260
X40866Y44252
X41024Y34764
X41024Y7874
X41181Y47992
X41339Y60630
X41339Y51024
X41339Y19685
X41339Y11811
X41378Y6417
X41496Y33937
X41575Y38976
X41614Y43425
X41693Y1181
X41732Y42756
X41732Y35118
X41732Y8189
X42165Y48031
X42205Y50354
X42205Y43346
X42362Y8543
X42402Y42717
X42520Y44252
X42559Y39567
X42953Y55630
X43071Y30276
X43071Y29055
X43150Y47520
X43307Y59055
X43307Y13780
X43386Y37126
X43425Y38780
X43465Y46024
X43740Y42992
X43898Y29783
X43937Y29449
X43976Y44764
X44134Y50354
X44134Y47520
X44213Y37874
X44213Y36378
X44291Y46260
X44488Y30394
X44528Y34055
X44528Y33268
X44528Y32047
X44606Y23425
X44646Y28858
X44646Y24961
X44685Y35591
X44685Y26654
X44882Y37283
X44921Y55709
X44921Y43819
X45079Y1142
X45118Y46024
X45157Y47520
X45276Y60630
X45276Y21654
X45276Y19685
X45354Y39567
X45630Y36457
X45827Y35591
X46063Y30827
X46063Y29134
X46063Y27559
X46102Y55709
X46142Y50315
X46142Y47520
X46220Y46102
X46457Y34094
X46457Y33307
X46457Y32283
X46496Y25236
X46575Y26260
X46850Y41339
X47008Y40079
X47008Y34055
X47244Y59055
X47244Y25433
X47244Y13780
X47244Y9843
X47323Y55709
X47559Y47559
X47953Y1102
X47992Y46693
X48031Y46063
X48071Y42008
X48110Y50315
X48622Y34291
X48976Y29843
X49016Y46260
X49016Y26496
X49094Y47559
X49213Y60630
X49213Y7874
X49252Y42835
X49646Y55709
X49685Y44094
X50039Y34764
X50118Y47559
X50118Y41339
X50157Y50315
X50315Y27480
X50354Y29331
X50394Y38031
X50394Y25472
X50472Y30827
X50551Y35315
X50551Y33780
X50866Y55709
X50984Y39961
X51142Y47598
X51181Y59055
X51181Y19685
X51181Y13780
X51181Y9843
X51181Y5906
X51181Y1969
X51339Y36811
X51457Y45709
X51654Y32480
X51732Y38622
X51850Y41732
X51890Y31535
X51929Y25472
X52126Y30236
X52205Y50276
X52244Y28504
X52323Y55709
X52756Y47559
X52835Y34173
X53150Y43071
X53150Y7874
X53189Y46339
X54252Y50276
X54764Y46850
X54843Y45906
X55118Y60630
X55118Y43307
X55118Y39370
X55118Y35433
X55118Y31496
X55118Y27559
X55118Y23622
X55118Y19685
X55118Y13780
X55118Y9843
X55118Y5906
X57087Y59055
X57087Y45276
X57087Y41339
X57087Y37402
X57087Y33465
X57087Y29528
X57087Y25591
X57087Y21654
X57087Y17717
X57087Y7874
X18762Y10733
X18969Y11078
X19264Y10615
X20662Y10645
X22638Y11723
X22638Y11329
X22638Y9931
X22638Y9538
X37697Y9105
X37697Y8711
X37697Y8317
X37697Y7924
X22598Y13022
X22618Y12077
X22657Y10286
X22677Y10975
X22697Y7550
X22838Y9288
X22986Y9020
X23071Y12530
X23287Y7805
X23523Y8790
X23602Y7825
X23828Y10257
X23838Y9518
X23854Y12120
X23858Y11211
X24035Y12569
X24409Y7628
X24803Y9557
X24862Y11585
X24901Y10408
X25098Y7510
X25157Y12963
X25413Y8042
X25433Y9085
X25472Y12589
X25787Y10251
X25866Y9931
X26043Y10601
X26122Y12786
X26279Y9656
X26358Y11290
X26417Y7510
X26830Y10187
X27067Y11211
X27165Y9400
X27185Y12766
X27598Y7589
X27730Y11685
X27795Y10325
X28027Y9955
X28050Y10705
X28051Y11644
X28051Y11329
X28405Y8928
X28405Y8593
X28661Y7786
X28701Y12195
X29134Y9951
X29153Y7491
X29212Y11743
X29527Y8076
X29530Y10445
X29665Y8376
X29724Y12491
X30649Y8928
X30807Y9498
X30886Y10522
X31043Y10207
X31063Y11900
X31181Y12668
X31260Y12372
X31594Y7491
X31693Y11428
X31712Y8081
X31830Y9183
X31988Y10050
X31988Y9695
X32086Y10542
X32126Y12333
X32421Y11428
X32730Y10745
X32756Y7983
X32952Y11782
X33140Y9185
X33248Y7786
X33681Y12687
X33681Y11487
X33870Y9535
X33878Y12983
X33878Y10483
X33880Y9845
X33880Y8775
X33917Y8258
X33917Y7550
X34862Y10857
X36555Y13008
X36673Y8219
X36673Y7589
X36830Y11683
X36830Y11290
X37145Y8219
X37224Y11683
X37224Y11290
X37657Y12983
X37716Y7491
X18969Y11078
X18762Y10734
X19264Y10615
X20662Y10645
T02
X6142Y49963
X6142Y48463
X7165Y49963
X7165Y48463
X8189Y49963
X8189Y48463
X9213Y49963
X9213Y48463
X10236Y49963
X10236Y48463
X12756Y49982
X12756Y48482
X13780Y49963
X13780Y48463
X14764Y49963
X14764Y48463
X15748Y49963
X15748Y48463
X16732Y49963
X16732Y48463
X17717Y49982
X17717Y48482
X18740Y50413
X18740Y48484
X26809Y48425
X28309Y48425
X29289Y48425
X30789Y48425
X34646Y50041
X34646Y48541
X35591Y50041
X35591Y48541
X36535Y50041
X36535Y48541
X37559Y50335
X37559Y48406
X38583Y50335
X38583Y48406
X39606Y49943
X39606Y48443
X40630Y49963
X40630Y48463
X41142Y53112
X41142Y51612
X41654Y49963
X41654Y48463
X42677Y49963
X42677Y48463
X43661Y49963
X43661Y48463
X44646Y49963
X44646Y48463
X45630Y49963
X45630Y48463
X46614Y49963
X46614Y48463
X47598Y49963
X47598Y48463
X48583Y49963
X48583Y48463
X49606Y49963
X49606Y48463
X50630Y49963
X50630Y48463
X51654Y49963
X51654Y48463
X52677Y49884
X52677Y48384
X53701Y49884
X53701Y48384
X54724Y49884
X54724Y48384
X55748Y49884
X55748Y48384
X56772Y49884
X56772Y48384
X57795Y49884
X57795Y48384
T03
X4906Y13843
X4906Y12843
X4906Y11843
X4906Y10843
X4906Y9843
X4906Y8724
X4906Y7724
X4906Y6724
X4906Y5724
X4906Y4724
X5906Y13843
X5906Y12843
X5906Y11843
X5906Y10843
X5906Y9843
X5906Y8724
X5906Y7724
X5906Y6724
X5906Y5724
X5906Y4724
X6693Y52362
X6906Y13843
X6906Y12843
X6906Y11843
X6906Y10843
X6906Y9843
X6906Y8724
X6906Y7724
X6906Y6724
X6906Y5724
X6906Y4724
X7874Y52362
X7874Y13843
X7874Y12843
X7874Y11843
X7874Y10843
X7874Y9843
X7874Y8724
X7874Y7724
X7874Y6724
X7874Y5724
X7874Y4724
X8874Y13843
X8874Y12843
X8874Y11843
X8874Y10843
X8874Y9843
X8874Y8724
X8874Y7724
X8874Y6724
X8874Y5724
X8874Y4724
X9874Y13843
X9874Y12843
X9874Y11843
X9874Y10843
X9874Y9843
X9874Y8724
X9874Y7724
X9874Y6724
X9874Y5724
X9874Y4724
X10433Y52362
X10811Y8724
X10811Y7724
X10811Y6724
X10811Y5724
X10811Y4724
X11614Y52362
X11614Y50394
X11748Y13811
X11748Y12811
X11748Y11811
X11811Y8724
X11811Y7724
X11811Y6724
X11811Y5724
X11811Y4724
X12748Y13811
X12748Y12811
X12748Y11811
X12795Y52362
X12811Y8724
X12811Y7724
X12811Y6724
X12811Y5724
X12811Y4724
X13748Y13811
X13748Y12811
X13748Y11811
X13780Y8724
X13780Y7724
X13780Y6724
X13780Y5724
X13780Y4724
X13976Y52362
X14748Y13811
X14748Y12811
X14748Y11811
X14780Y8724
X14780Y7724
X14780Y6724
X14780Y5724
X14780Y4724
X15748Y13811
X15748Y12811
X15748Y11811
X15780Y8724
X15780Y7724
X15780Y6724
X15780Y5724
X15780Y4724
X17126Y38976
X17126Y37795
X17126Y36614
X17126Y35433
X17126Y34252
X17126Y33071
X17126Y31890
X17126Y26181
X17126Y23425
X17165Y29449
X17323Y52362
X18228Y2618
X19228Y2618
X19882Y52362
X19882Y50197
X20228Y2618
X21063Y52362
X21063Y50197
X21228Y2618
X22228Y2618
X22244Y52362
X22244Y50197
X23228Y2618
X23425Y52358
X23425Y50197
X23622Y14016
X24606Y52362
X24606Y50197
X24803Y14016
X25787Y52362
X25787Y50197
X25984Y14016
X27008Y50197
X27165Y14016
X28189Y50197
X28346Y14016
X29134Y52362
X29370Y50197
X29528Y14016
X30709Y14016
X30866Y52362
X30866Y50197
X31890Y14016
X32126Y52362
X32126Y50197
X33071Y14016
X33386Y52362
X33386Y50197
X34252Y14016
X35433Y14016
X36614Y14016
X37795Y14016
X42323Y51969
X42441Y37598
X42441Y36299
X42441Y35039
X42441Y33780
X42441Y32520
X42441Y31260
X42441Y27559
X42441Y25827
X42441Y24094
X42441Y22283
X43504Y51969
X45866Y51969
X47047Y51969
X40098Y5650
X41083Y5650
X42067Y5650
X43051Y5650
X44035Y5650
X45020Y5650
X46004Y5650
X46988Y5650
X47972Y5650
X48957Y5650
X22838Y8357
X24838Y8757
X24838Y7957
T04
X34492Y12431
X35492Y12431
X36492Y12431
T05
X5354Y56890
X5354Y55118
X6732Y56890
X6732Y55118
X7953Y56890
X7953Y55118
X9134Y56890
X9134Y55118
X10315Y56890
X10315Y55118
X11496Y56890
X11496Y55118
X12677Y56890
X12677Y55118
X13858Y56890
X13858Y55118
X15039Y56890
X15039Y55118
X16220Y56890
X16220Y55118
X17441Y56890
X17441Y55118
X19783Y56890
X19783Y55118
X20965Y56890
X20965Y55118
X22146Y56890
X22146Y55118
X23327Y56890
X23327Y55118
X24508Y56890
X24508Y55118
X25689Y56890
X25689Y55118
X27933Y56890
X27933Y55118
X29114Y56890
X29114Y55118
X30295Y56890
X30295Y55118
X31476Y56890
X31476Y55118
X32657Y56890
X32657Y55118
X33839Y56890
X33839Y55118
X35020Y56890
X35020Y55118
X36201Y56890
X36201Y55118
X38543Y56890
X38543Y55118
X39921Y56890
X39921Y55118
X41142Y56890
X41142Y55118
X42323Y56890
X42323Y55118
X43504Y56890
X43504Y55118
X44685Y56890
X44685Y55118
X45866Y56890
X45866Y55118
X47047Y56890
X47047Y55118
X48228Y56890
X48228Y55118
X49409Y56890
X49409Y55118
X50630Y56890
X50630Y55118
X52008Y56890
X52008Y55118
X53386Y56890
X53386Y55118
T06
X8543Y40738
X8543Y39163
X8543Y37589
X8543Y36014
X8543Y34439
X8543Y32864
X8543Y31289
X8543Y29715
X8543Y28140
X8543Y26565
X8543Y24990
X8543Y23415
X10118Y39951
X10118Y38376
X10118Y36801
X10118Y35226
X10118Y33652
X10118Y32077
X10118Y30502
X10118Y28927
X10118Y27352
X10118Y25778
X10118Y24203
X11693Y40738
X11693Y39163
X11693Y37589
X11693Y36014
X11693Y34439
X11693Y32864
X11693Y31289
X11693Y29715
X11693Y28140
X11693Y26565
X11693Y24990
X11693Y23415
X24291Y23809
X24291Y20659
X25079Y22234
X25866Y23809
X25866Y20659
X26654Y22234
X27441Y23809
X27441Y20659
X28228Y22234
X29016Y23809
X29016Y20659
X29803Y22234
X30591Y23809
X30591Y20659
X31378Y22234
X32165Y23809
X32165Y20659
X32953Y22234
X33740Y23809
X33740Y20659
X34528Y22234
X35315Y23809
X35315Y20659
X47913Y40738
X47913Y39163
X47913Y37589
X47913Y36014
X47913Y34439
X47913Y32864
X47913Y31289
X47913Y29715
X47913Y28140
X47913Y26565
X47913Y24990
X47913Y23415
X49488Y39951
X49488Y38376
X49488Y36801
X49488Y35226
X49488Y33652
X49488Y32077
X49488Y30502
X49488Y28927
X49488Y27352
X49488Y25778
X49488Y24203
X51063Y40738
X51063Y39163
X51063Y37589
X51063Y36014
X51063Y34439
X51063Y32864
X51063Y31289
X51063Y29715
X51063Y28140
X51063Y26565
X51063Y24990
X51063Y23415
T07
X5866Y44557
X5866Y19596
X12992Y45148
X12992Y19006
X19882Y25108
X20472Y17982
X39134Y17982
X39724Y25108
X46614Y45148
X46614Y19006
X53740Y44557
X53740Y19596
T08
X5098Y59134
X18661Y59134
X37323Y59134
X53642Y59134
T09
X1969Y54016
X1969Y2362
X56693Y54016
X56693Y2362
M30
